solid TTGO_small_USB-C_case
facet normal -3.546438591168633e-20 2.8792965983871122e-18 1.0
  outer loop
    vertex 44.99999999999997 63.10000000000056 0.9999999999999999
    vertex 3.1000000000000005 66.00000000000055 0.9999999999999999
    vertex 3.1000000000000005 63.10000000000056 0.9999999999999999
  endloop
endfacet
facet normal -3.546438591168633e-20 2.8792965983871122e-18 1.0
  outer loop
    vertex 3.1000000000000005 66.00000000000055 0.9999999999999999
    vertex 44.99999999999997 63.10000000000056 0.9999999999999999
    vertex 10.0 66.00000000000055 0.9999999999999999
  endloop
endfacet
facet normal -3.546438591168633e-20 2.8792965983871122e-18 1.0
  outer loop
    vertex 10.0 66.00000000000055 0.9999999999999999
    vertex 44.99999999999997 63.10000000000056 0.9999999999999999
    vertex 20.0 67.00000000000054 0.9999999999999998
  endloop
endfacet
facet normal -3.546438591168633e-20 2.8792965983871122e-18 1.0
  outer loop
    vertex 10.0 66.00000000000055 0.9999999999999999
    vertex 20.0 67.00000000000054 0.9999999999999998
    vertex 10.0 86.00000000000057 0.9999999999999999
  endloop
endfacet
facet normal -3.546438591168633e-20 2.8792965983871122e-18 1.0
  outer loop
    vertex 10.0 86.00000000000057 0.9999999999999999
    vertex 20.0 67.00000000000054 0.9999999999999998
    vertex 12.0 86.90000000000055 0.9999999999999999
  endloop
endfacet
facet normal -3.546438591168633e-20 2.8792965983871122e-18 1.0
  outer loop
    vertex 12.0 86.90000000000055 0.9999999999999999
    vertex 20.0 67.00000000000054 0.9999999999999998
    vertex 18.28115294937452 86.90000000000055 0.9999999999999996
  endloop
endfacet
facet normal -3.546438591168633e-20 2.8792965983871122e-18 1.0
  outer loop
    vertex 18.28115294937452 86.90000000000055 0.9999999999999996
    vertex 20.0 67.00000000000054 0.9999999999999998
    vertex 18.28115294937452 88.90000000000055 0.9999999999999996
  endloop
endfacet
facet normal -3.546438591168633e-20 2.8792965983871122e-18 1.0
  outer loop
    vertex 20.0 67.00000000000054 0.9999999999999998
    vertex 44.99999999999997 63.10000000000056 0.9999999999999999
    vertex 44.99999999999997 67.00000000000054 0.9999999999999999
  endloop
endfacet
facet normal -3.546438591168633e-20 2.8792965983871122e-18 1.0
  outer loop
    vertex 18.28115294937452 88.90000000000055 0.9999999999999996
    vertex 20.0 85.00000000000053 0.9999999999999998
    vertex 44.99999999999997 88.90000000000055 0.9999999999999999
  endloop
endfacet
facet normal -3.546438591168633e-20 2.8792965983871122e-18 1.0
  outer loop
    vertex 20.0 85.00000000000053 0.9999999999999998
    vertex 18.28115294937452 88.90000000000055 0.9999999999999996
    vertex 20.0 67.00000000000054 0.9999999999999998
  endloop
endfacet
facet normal -3.546438591168633e-20 2.8792965983871122e-18 1.0
  outer loop
    vertex 44.99999999999997 88.90000000000055 0.9999999999999999
    vertex 20.0 85.00000000000053 0.9999999999999998
    vertex 44.99999999999997 85.00000000000053 0.9999999999999999
  endloop
endfacet
facet normal -3.546438591168633e-20 2.8792965983871122e-18 1.0
  outer loop
    vertex 10.0 86.00000000000057 0.9999999999999999
    vertex 3.1000000000000005 88.90000000000055 0.9999999999999999
    vertex 3.1000000000000005 86.00000000000057 0.9999999999999999
  endloop
endfacet
facet normal -3.546438591168633e-20 2.8792965983871122e-18 1.0
  outer loop
    vertex 3.1000000000000005 88.90000000000055 0.9999999999999999
    vertex 10.0 86.00000000000057 0.9999999999999999
    vertex 12.0 88.90000000000055 0.9999999999999999
  endloop
endfacet
facet normal -3.546438591168633e-20 2.8792965983871122e-18 1.0
  outer loop
    vertex 12.0 88.90000000000055 0.9999999999999999
    vertex 10.0 86.00000000000057 0.9999999999999999
    vertex 12.0 86.90000000000055 0.9999999999999999
  endloop
endfacet
facet normal 1.0 0.0 0.0
  outer loop
    vertex 12.0 91.00000000000053 6.853247740238201e-15
    vertex 12.0 86.90000000000055 0.9999999999999999
    vertex 12.0 86.90000000000055 -1.762479051592436e-16
  endloop
endfacet
facet normal 1.0 0.0 0.0
  outer loop
    vertex 12.0 86.90000000000055 0.9999999999999999
    vertex 12.0 91.00000000000053 6.853247740238201e-15
    vertex 12.0 88.90000000000055 0.9999999999999999
  endloop
endfacet
facet normal 1.0 0.0 0.0
  outer loop
    vertex 12.0 88.90000000000055 0.9999999999999999
    vertex 12.0 91.00000000000053 6.853247740238201e-15
    vertex 12.0 88.90000000000055 4.999999999999999
  endloop
endfacet
facet normal 1.0 0.0 0.0
  outer loop
    vertex 12.0 88.90000000000055 4.999999999999999
    vertex 12.0 91.00000000000053 6.853247740238201e-15
    vertex 12.0 92.00000000000051 4.999999999999999
  endloop
endfacet
facet normal 1.0 0.0 0.0
  outer loop
    vertex 12.0 92.00000000000051 4.999999999999999
    vertex 12.0 91.00000000000053 6.853247740238201e-15
    vertex 12.0 92.00000000000051 3.9999999999999996
  endloop
endfacet
facet normal 4.675779406593553e-18 0.7071067811865477 -0.7071067811865475
  outer loop
    vertex 20.0 67.00000000000054 0.9999999999999998
    vertex 45.99999999999997 66.00000000000058 1.762479051592436e-15
    vertex 19.0 66.00000000000058 1.5497660626071412e-15
  endloop
endfacet
facet normal 4.675779406593553e-18 0.7071067811865477 -0.7071067811865475
  outer loop
    vertex 45.99999999999997 66.00000000000058 1.762479051592436e-15
    vertex 20.0 67.00000000000054 0.9999999999999998
    vertex 44.99999999999997 67.00000000000054 0.9999999999999999
  endloop
endfacet
facet normal 0.7071067811865491 1.8709102506132864e-18 -0.707106781186546
  outer loop
    vertex 2.1000000000000005 87.00000000000054 -4.229949723821846e-15
    vertex 3.1000000000000005 80.75000000000051 0.9999999999999999
    vertex 2.1000000000000005 80.75000000000051 -4.229949723821846e-15
  endloop
endfacet
facet normal 0.7071067811865491 1.8709102506132864e-18 -0.707106781186546
  outer loop
    vertex 3.1000000000000005 80.75000000000051 0.9999999999999999
    vertex 2.1000000000000005 87.00000000000054 -4.229949723821846e-15
    vertex 3.1000000000000005 86.00000000000057 0.9999999999999999
  endloop
endfacet
facet normal -1.0 3.3910304382692313e-16 6.60723688504012e-17
  outer loop
    vertex 18.281152949374523 92.00000000000051 4.999999999999999
    vertex 18.28115294937452 88.90000000000055 0.9999999999999996
    vertex 18.281152949374523 88.90000000000055 4.999999999999999
  endloop
endfacet
facet normal -1.0 3.3910304382692313e-16 6.60723688504012e-17
  outer loop
    vertex 18.28115294937452 88.90000000000055 0.9999999999999996
    vertex 18.281152949374523 92.00000000000051 4.999999999999999
    vertex 18.281152949374523 91.00000000000053 5.198097116470116e-15
  endloop
endfacet
facet normal -1.0 3.3910304382692313e-16 6.60723688504012e-17
  outer loop
    vertex 18.281152949374523 91.00000000000053 5.198097116470116e-15
    vertex 18.281152949374523 92.00000000000051 4.999999999999999
    vertex 18.281152949374523 92.00000000000051 3.9999999999999996
  endloop
endfacet
facet normal -1.0 3.3910304382692313e-16 6.60723688504012e-17
  outer loop
    vertex 18.28115294937452 88.90000000000055 0.9999999999999996
    vertex 18.281152949374523 86.90000000000055 5.198097116470116e-15
    vertex 18.28115294937452 86.90000000000055 0.9999999999999996
  endloop
endfacet
facet normal -1.0 3.3910304382692313e-16 6.60723688504012e-17
  outer loop
    vertex 18.281152949374523 86.90000000000055 5.198097116470116e-15
    vertex 18.28115294937452 88.90000000000055 0.9999999999999996
    vertex 18.281152949374523 91.00000000000053 5.198097116470116e-15
  endloop
endfacet
facet normal 1.4851422285108378e-15 0.9701425001453338 -0.24253562503632553
  outer loop
    vertex 0.0 92.00000000000051 3.9999999999999996
    vertex 12.0 91.00000000000053 6.853247740238201e-15
    vertex 0.9999999999999999 91.00000000000055 -2.432171455140365e-18
  endloop
endfacet
facet normal 1.4851422285108378e-15 0.9701425001453338 -0.24253562503632553
  outer loop
    vertex 12.0 91.00000000000053 6.853247740238201e-15
    vertex 0.0 92.00000000000051 3.9999999999999996
    vertex 12.0 92.00000000000051 3.9999999999999996
  endloop
endfacet
facet normal 0.0 -1.0 0.0
  outer loop
    vertex 57.999999999999986 60.00000000000051 12.0
    vertex 0.0 60.00000000000051 3.9999999999999996
    vertex 57.999999999999986 60.00000000000051 3.9999999999999996
  endloop
endfacet
facet normal 0.0 -1.0 0.0
  outer loop
    vertex 0.0 60.00000000000051 3.9999999999999996
    vertex 57.999999999999986 60.00000000000051 12.0
    vertex 0.0 60.00000000000051 12.0
  endloop
endfacet
facet normal -1.0 0.0 -4.699944137579828e-16
  outer loop
    vertex 0.0 92.00000000000051 12.0
    vertex 0.0 60.00000000000051 3.9999999999999996
    vertex 0.0 60.00000000000051 12.0
  endloop
endfacet
facet normal -1.0 0.0 -4.699944137579828e-16
  outer loop
    vertex 0.0 60.00000000000051 3.9999999999999996
    vertex 0.0 92.00000000000051 12.0
    vertex 5.639932965095795e-15 71.25000000000054 3.9999999999999996
  endloop
endfacet
facet normal -1.0 0.0 -4.699944137579828e-16
  outer loop
    vertex 5.639932965095795e-15 71.25000000000054 3.9999999999999996
    vertex 0.0 92.00000000000051 12.0
    vertex 5.639932965095795e-15 80.75000000000051 3.9999999999999996
  endloop
endfacet
facet normal -1.0 0.0 -4.699944137579828e-16
  outer loop
    vertex 5.639932965095795e-15 80.75000000000051 3.9999999999999996
    vertex 0.0 92.00000000000051 12.0
    vertex 0.0 92.00000000000051 3.9999999999999996
  endloop
endfacet
facet normal 3.1200743753587384e-18 -0.7071067811865576 -0.7071067811865376
  outer loop
    vertex 10.0 86.00000000000057 0.9999999999999999
    vertex 2.1000000000000005 87.00000000000054 -4.229949723821846e-15
    vertex 11.0 87.00000000000054 -4.229949723821846e-15
  endloop
endfacet
facet normal 3.1200743753587384e-18 -0.7071067811865576 -0.7071067811865376
  outer loop
    vertex 2.1000000000000005 87.00000000000054 -4.229949723821846e-15
    vertex 10.0 86.00000000000057 0.9999999999999999
    vertex 3.1000000000000005 86.00000000000057 0.9999999999999999
  endloop
endfacet
facet normal 0.0 -1.0 0.0
  outer loop
    vertex 3.1000000000000005 80.75000000000051 0.9999999999999999
    vertex 1.0000000000000056 80.75000000000051 -4.229949723821846e-15
    vertex 2.1000000000000005 80.75000000000051 -4.229949723821846e-15
  endloop
endfacet
facet normal 0.0 -1.0 0.0
  outer loop
    vertex 1.0000000000000056 80.75000000000051 -4.229949723821846e-15
    vertex 3.1000000000000005 80.75000000000051 0.9999999999999999
    vertex 5.639932965095795e-15 80.75000000000051 3.9999999999999996
  endloop
endfacet
facet normal 0.0 -1.0 0.0
  outer loop
    vertex 5.639932965095795e-15 80.75000000000051 3.9999999999999996
    vertex 3.1000000000000005 80.75000000000051 0.9999999999999999
    vertex 3.1000000000000005 80.75000000000051 3.9999999999999996
  endloop
endfacet
facet normal 0.7071067811865466 1.2233248957435596e-33 -0.7071067811865485
  outer loop
    vertex 20.0 85.00000000000053 0.9999999999999998
    vertex 19.0 66.00000000000058 1.5497660626071412e-15
    vertex 19.0 86.00000000000057 1.5497660626071412e-15
  endloop
endfacet
facet normal 0.7071067811865466 1.2233248957435596e-33 -0.7071067811865485
  outer loop
    vertex 19.0 66.00000000000058 1.5497660626071412e-15
    vertex 20.0 85.00000000000053 0.9999999999999998
    vertex 20.0 67.00000000000054 0.9999999999999998
  endloop
endfacet
facet normal 0.0 1.0 0.0
  outer loop
    vertex 12.0 86.90000000000055 0.9999999999999999
    vertex 18.281152949374523 86.90000000000055 5.198097116470116e-15
    vertex 12.0 86.90000000000055 -1.762479051592436e-16
  endloop
endfacet
facet normal 0.0 1.0 0.0
  outer loop
    vertex 18.281152949374523 86.90000000000055 5.198097116470116e-15
    vertex 12.0 86.90000000000055 0.9999999999999999
    vertex 18.28115294937452 86.90000000000055 0.9999999999999996
  endloop
endfacet
facet normal 0.0 0.0 -1.0
  outer loop
    vertex 18.281152949374523 92.00000000000051 4.999999999999999
    vertex 12.0 88.90000000000055 4.999999999999999
    vertex 12.0 92.00000000000051 4.999999999999999
  endloop
endfacet
facet normal 0.0 0.0 -1.0
  outer loop
    vertex 12.0 88.90000000000055 4.999999999999999
    vertex 18.281152949374523 92.00000000000051 4.999999999999999
    vertex 18.281152949374523 88.90000000000055 4.999999999999999
  endloop
endfacet
facet normal -2.2282586777175199e-32 0.9701425001453321 -0.24253562503633266
  outer loop
    vertex 3.1000000000000005 63.35000000000056 11.000000000000002
    vertex 54.89999999999998 63.10000000000056 10.000000000000002
    vertex 3.1000000000000005 63.10000000000056 10.000000000000002
  endloop
endfacet
facet normal -2.2282586777175199e-32 0.9701425001453321 -0.24253562503633266
  outer loop
    vertex 54.89999999999998 63.10000000000056 10.000000000000002
    vertex 3.1000000000000005 63.35000000000056 11.000000000000002
    vertex 54.89999999999998 63.35000000000056 11.000000000000002
  endloop
endfacet
facet normal -2.2282586777175199e-32 0.9701425001453321 0.24253562503633266
  outer loop
    vertex 3.1000000000000005 63.10000000000056 12.0
    vertex 54.89999999999998 63.35000000000056 11.000000000000002
    vertex 3.1000000000000005 63.35000000000056 11.000000000000002
  endloop
endfacet
facet normal -2.2282586777175199e-32 0.9701425001453321 0.24253562503633266
  outer loop
    vertex 54.89999999999998 63.35000000000056 11.000000000000002
    vertex 3.1000000000000005 63.10000000000056 12.0
    vertex 54.89999999999998 63.10000000000056 12.0
  endloop
endfacet
facet normal -1.007064647094907e-31 -0.9701425001453603 0.24253562503621934
  outer loop
    vertex 54.89999999999998 88.90000000000055 12.0
    vertex 3.1000000000000054 88.65000000000067 11.000000000000002
    vertex 54.89999999999998 88.65000000000067 11.000000000000002
  endloop
endfacet
facet normal -1.007064647094907e-31 -0.9701425001453603 0.24253562503621934
  outer loop
    vertex 3.1000000000000054 88.65000000000067 11.000000000000002
    vertex 54.89999999999998 88.90000000000055 12.0
    vertex 3.1000000000000005 88.90000000000055 12.0
  endloop
endfacet
facet normal 0.0 -0.9701425001453603 -0.24253562503621934
  outer loop
    vertex 54.89999999999998 88.65000000000067 11.000000000000002
    vertex 3.1000000000000054 88.90000000000055 10.000000000000002
    vertex 54.89999999999998 88.90000000000055 10.000000000000002
  endloop
endfacet
facet normal 0.0 -0.9701425001453603 -0.24253562503621934
  outer loop
    vertex 3.1000000000000054 88.90000000000055 10.000000000000002
    vertex 54.89999999999998 88.65000000000067 11.000000000000002
    vertex 3.1000000000000054 88.65000000000067 11.000000000000002
  endloop
endfacet
facet normal -0.9701425001453321 -4.636763193491089e-16 -0.24253562503633283
  outer loop
    vertex 0.0 92.00000000000051 3.9999999999999996
    vertex 1.0000000000000056 80.75000000000051 -4.229949723821846e-15
    vertex 5.639932965095795e-15 80.75000000000051 3.9999999999999996
  endloop
endfacet
facet normal -0.9701425001453321 -4.636763193491089e-16 -0.24253562503633283
  outer loop
    vertex 1.0000000000000056 80.75000000000051 -4.229949723821846e-15
    vertex 0.0 92.00000000000051 3.9999999999999996
    vertex 0.9999999999999999 91.00000000000055 -2.432171455140365e-18
  endloop
endfacet
facet normal 0.0 0.0 1.0
  outer loop
    vertex 0.0 60.00000000000051 12.0
    vertex 3.1000000000000005 63.10000000000056 12.0
    vertex 0.0 92.00000000000051 12.0
  endloop
endfacet
facet normal 0.0 0.0 1.0
  outer loop
    vertex 3.1000000000000005 63.10000000000056 12.0
    vertex 0.0 60.00000000000051 12.0
    vertex 57.999999999999986 60.00000000000051 12.0
  endloop
endfacet
facet normal 0.0 0.0 1.0
  outer loop
    vertex 3.1000000000000005 63.10000000000056 12.0
    vertex 57.999999999999986 60.00000000000051 12.0
    vertex 54.89999999999998 63.10000000000056 12.0
  endloop
endfacet
facet normal 0.0 0.0 1.0
  outer loop
    vertex 54.89999999999998 63.10000000000056 12.0
    vertex 57.999999999999986 60.00000000000051 12.0
    vertex 54.89999999999998 88.90000000000055 12.0
  endloop
endfacet
facet normal 0.0 0.0 1.0
  outer loop
    vertex 0.0 92.00000000000051 12.0
    vertex 3.1000000000000005 88.90000000000055 12.0
    vertex 57.999999999999986 92.00000000000051 12.0
  endloop
endfacet
facet normal 0.0 0.0 1.0
  outer loop
    vertex 3.1000000000000005 88.90000000000055 12.0
    vertex 0.0 92.00000000000051 12.0
    vertex 3.1000000000000005 63.10000000000056 12.0
  endloop
endfacet
facet normal 0.0 0.0 1.0
  outer loop
    vertex 57.999999999999986 92.00000000000051 12.0
    vertex 3.1000000000000005 88.90000000000055 12.0
    vertex 54.89999999999998 88.90000000000055 12.0
  endloop
endfacet
facet normal 0.0 0.0 1.0
  outer loop
    vertex 57.999999999999986 92.00000000000051 12.0
    vertex 54.89999999999998 88.90000000000055 12.0
    vertex 57.999999999999986 60.00000000000051 12.0
  endloop
endfacet
facet normal 0.9701425001453321 -2.052623052482306e-33 -0.24253562503633255
  outer loop
    vertex 56.999999999999986 61.00000000000054 0.0
    vertex 57.999999999999986 92.00000000000051 3.9999999999999996
    vertex 57.999999999999986 60.00000000000051 3.9999999999999996
  endloop
endfacet
facet normal 0.9701425001453321 -2.052623052482306e-33 -0.24253562503633255
  outer loop
    vertex 57.999999999999986 92.00000000000051 3.9999999999999996
    vertex 56.999999999999986 61.00000000000054 0.0
    vertex 56.999999999999986 91.00000000000055 -2.432171455140365e-18
  endloop
endfacet
facet normal 0.0 1.0 0.0
  outer loop
    vertex 0.0 92.00000000000051 12.0
    vertex 12.0 92.00000000000051 3.9999999999999996
    vertex 0.0 92.00000000000051 3.9999999999999996
  endloop
endfacet
facet normal 0.0 1.0 0.0
  outer loop
    vertex 12.0 92.00000000000051 3.9999999999999996
    vertex 0.0 92.00000000000051 12.0
    vertex 12.0 92.00000000000051 4.999999999999999
  endloop
endfacet
facet normal 0.0 1.0 0.0
  outer loop
    vertex 12.0 92.00000000000051 4.999999999999999
    vertex 0.0 92.00000000000051 12.0
    vertex 18.281152949374523 92.00000000000051 4.999999999999999
  endloop
endfacet
facet normal 0.0 1.0 0.0
  outer loop
    vertex 18.281152949374523 92.00000000000051 4.999999999999999
    vertex 57.999999999999986 92.00000000000051 3.9999999999999996
    vertex 18.281152949374523 92.00000000000051 3.9999999999999996
  endloop
endfacet
facet normal 0.0 1.0 0.0
  outer loop
    vertex 57.999999999999986 92.00000000000051 3.9999999999999996
    vertex 18.281152949374523 92.00000000000051 4.999999999999999
    vertex 57.999999999999986 92.00000000000051 12.0
  endloop
endfacet
facet normal 0.0 1.0 0.0
  outer loop
    vertex 57.999999999999986 92.00000000000051 12.0
    vertex 18.281152949374523 92.00000000000051 4.999999999999999
    vertex 0.0 92.00000000000051 12.0
  endloop
endfacet
facet normal -1.0 0.0 0.0
  outer loop
    vertex 44.99999999999997 88.90000000000055 1.9999999999999998
    vertex 44.99999999999997 63.10000000000056 0.9999999999999999
    vertex 44.99999999999997 63.10000000000056 1.9999999999999998
  endloop
endfacet
facet normal -1.0 0.0 0.0
  outer loop
    vertex 44.99999999999997 63.10000000000056 0.9999999999999999
    vertex 44.99999999999997 88.90000000000055 1.9999999999999998
    vertex 44.99999999999997 67.00000000000054 0.9999999999999999
  endloop
endfacet
facet normal -1.0 0.0 0.0
  outer loop
    vertex 44.99999999999997 67.00000000000054 0.9999999999999999
    vertex 44.99999999999997 88.90000000000055 1.9999999999999998
    vertex 44.99999999999997 85.00000000000053 0.9999999999999999
  endloop
endfacet
facet normal -1.0 0.0 0.0
  outer loop
    vertex 44.99999999999997 85.00000000000053 0.9999999999999999
    vertex 44.99999999999997 88.90000000000055 1.9999999999999998
    vertex 44.99999999999997 88.90000000000055 0.9999999999999999
  endloop
endfacet
facet normal 0.0 0.0 1.0
  outer loop
    vertex 54.89999999999998 63.10000000000056 1.9999999999999998
    vertex 44.99999999999997 88.90000000000055 1.9999999999999998
    vertex 44.99999999999997 63.10000000000056 1.9999999999999998
  endloop
endfacet
facet normal 0.0 0.0 1.0
  outer loop
    vertex 44.99999999999997 88.90000000000055 1.9999999999999998
    vertex 54.89999999999998 63.10000000000056 1.9999999999999998
    vertex 54.89999999999998 88.90000000000055 1.9999999999999998
  endloop
endfacet
facet normal 0.0 -1.0 0.0
  outer loop
    vertex 54.89999999999998 88.90000000000055 10.000000000000002
    vertex 44.99999999999997 88.90000000000055 1.9999999999999998
    vertex 54.89999999999998 88.90000000000055 1.9999999999999998
  endloop
endfacet
facet normal 0.0 -1.0 0.0
  outer loop
    vertex 44.99999999999997 88.90000000000055 1.9999999999999998
    vertex 54.89999999999998 88.90000000000055 10.000000000000002
    vertex 18.281152949374523 88.90000000000055 4.999999999999999
  endloop
endfacet
facet normal 0.0 -1.0 0.0
  outer loop
    vertex 18.281152949374523 88.90000000000055 4.999999999999999
    vertex 54.89999999999998 88.90000000000055 10.000000000000002
    vertex 12.0 88.90000000000055 4.999999999999999
  endloop
endfacet
facet normal 0.0 -1.0 0.0
  outer loop
    vertex 12.0 88.90000000000055 4.999999999999999
    vertex 3.1000000000000005 88.90000000000055 0.9999999999999999
    vertex 12.0 88.90000000000055 0.9999999999999999
  endloop
endfacet
facet normal 0.0 -1.0 0.0
  outer loop
    vertex 3.1000000000000005 88.90000000000055 0.9999999999999999
    vertex 12.0 88.90000000000055 4.999999999999999
    vertex 3.1000000000000054 88.90000000000055 10.000000000000002
  endloop
endfacet
facet normal 0.0 -1.0 0.0
  outer loop
    vertex 3.1000000000000054 88.90000000000055 10.000000000000002
    vertex 12.0 88.90000000000055 4.999999999999999
    vertex 54.89999999999998 88.90000000000055 10.000000000000002
  endloop
endfacet
facet normal 0.0 -1.0 0.0
  outer loop
    vertex 44.99999999999997 88.90000000000055 0.9999999999999999
    vertex 18.281152949374523 88.90000000000055 4.999999999999999
    vertex 18.28115294937452 88.90000000000055 0.9999999999999996
  endloop
endfacet
facet normal 0.0 -1.0 0.0
  outer loop
    vertex 18.281152949374523 88.90000000000055 4.999999999999999
    vertex 44.99999999999997 88.90000000000055 0.9999999999999999
    vertex 44.99999999999997 88.90000000000055 1.9999999999999998
  endloop
endfacet
facet normal 1.0 0.0 0.0
  outer loop
    vertex 57.999999999999986 92.00000000000051 3.9999999999999996
    vertex 57.999999999999986 60.00000000000051 12.0
    vertex 57.999999999999986 60.00000000000051 3.9999999999999996
  endloop
endfacet
facet normal 1.0 0.0 0.0
  outer loop
    vertex 57.999999999999986 60.00000000000051 12.0
    vertex 57.999999999999986 92.00000000000051 3.9999999999999996
    vertex 57.999999999999986 92.00000000000051 12.0
  endloop
endfacet
facet normal -0.9701425001453321 4.59246290820296e-16 -0.24253562503633283
  outer loop
    vertex 5.639932965095795e-15 71.25000000000054 3.9999999999999996
    vertex 0.9999999999999999 61.00000000000054 0.0
    vertex 0.0 60.00000000000051 3.9999999999999996
  endloop
endfacet
facet normal -0.9701425001453321 4.59246290820296e-16 -0.24253562503633283
  outer loop
    vertex 0.9999999999999999 61.00000000000054 0.0
    vertex 5.639932965095795e-15 71.25000000000054 3.9999999999999996
    vertex 1.0000000000000056 71.25000000000054 -4.229949723821846e-15
  endloop
endfacet
facet normal 0.0 1.0 0.0
  outer loop
    vertex 3.1000000000000005 63.10000000000056 10.000000000000002
    vertex 44.99999999999997 63.10000000000056 0.9999999999999999
    vertex 3.1000000000000005 63.10000000000056 0.9999999999999999
  endloop
endfacet
facet normal 0.0 1.0 0.0
  outer loop
    vertex 44.99999999999997 63.10000000000056 0.9999999999999999
    vertex 3.1000000000000005 63.10000000000056 10.000000000000002
    vertex 44.99999999999997 63.10000000000056 1.9999999999999998
  endloop
endfacet
facet normal 0.0 1.0 0.0
  outer loop
    vertex 44.99999999999997 63.10000000000056 1.9999999999999998
    vertex 3.1000000000000005 63.10000000000056 10.000000000000002
    vertex 54.89999999999998 63.10000000000056 1.9999999999999998
  endloop
endfacet
facet normal 0.0 1.0 0.0
  outer loop
    vertex 54.89999999999998 63.10000000000056 1.9999999999999998
    vertex 3.1000000000000005 63.10000000000056 10.000000000000002
    vertex 54.89999999999998 63.10000000000056 10.000000000000002
  endloop
endfacet
facet normal 0.0 -0.9701425001453322 -0.2425356250363323
  outer loop
    vertex 57.999999999999986 60.00000000000051 3.9999999999999996
    vertex 0.9999999999999999 61.00000000000054 0.0
    vertex 56.999999999999986 61.00000000000054 0.0
  endloop
endfacet
facet normal 0.0 -0.9701425001453322 -0.2425356250363323
  outer loop
    vertex 0.9999999999999999 61.00000000000054 0.0
    vertex 57.999999999999986 60.00000000000051 3.9999999999999996
    vertex 0.0 60.00000000000051 3.9999999999999996
  endloop
endfacet
facet normal -1.0 0.0 0.0
  outer loop
    vertex 54.89999999999998 88.90000000000055 12.0
    vertex 54.89999999999998 63.35000000000056 11.000000000000002
    vertex 54.89999999999998 63.10000000000056 12.0
  endloop
endfacet
facet normal -1.0 0.0 0.0
  outer loop
    vertex 54.89999999999998 63.35000000000056 11.000000000000002
    vertex 54.89999999999998 88.90000000000055 12.0
    vertex 54.89999999999998 88.65000000000067 11.000000000000002
  endloop
endfacet
facet normal -1.0 0.0 0.0
  outer loop
    vertex 54.89999999999998 63.35000000000056 11.000000000000002
    vertex 54.89999999999998 63.10000000000056 1.9999999999999998
    vertex 54.89999999999998 63.10000000000056 10.000000000000002
  endloop
endfacet
facet normal -1.0 0.0 0.0
  outer loop
    vertex 54.89999999999998 63.10000000000056 1.9999999999999998
    vertex 54.89999999999998 63.35000000000056 11.000000000000002
    vertex 54.89999999999998 88.90000000000055 1.9999999999999998
  endloop
endfacet
facet normal -1.0 0.0 0.0
  outer loop
    vertex 54.89999999999998 88.90000000000055 1.9999999999999998
    vertex 54.89999999999998 63.35000000000056 11.000000000000002
    vertex 54.89999999999998 88.65000000000067 11.000000000000002
  endloop
endfacet
facet normal -1.0 0.0 0.0
  outer loop
    vertex 54.89999999999998 88.90000000000055 1.9999999999999998
    vertex 54.89999999999998 88.65000000000067 11.000000000000002
    vertex 54.89999999999998 88.90000000000055 10.000000000000002
  endloop
endfacet
facet normal 0.7071067811865491 -1.8709102506133026e-18 -0.707106781186546
  outer loop
    vertex 2.1000000000000005 71.25000000000054 -4.229949723821846e-15
    vertex 3.1000000000000005 66.00000000000055 0.9999999999999999
    vertex 2.1000000000000005 65.0000000000005 -4.229949723821846e-15
  endloop
endfacet
facet normal 0.7071067811865491 -1.8709102506133026e-18 -0.707106781186546
  outer loop
    vertex 3.1000000000000005 66.00000000000055 0.9999999999999999
    vertex 2.1000000000000005 71.25000000000054 -4.229949723821846e-15
    vertex 3.1000000000000005 71.25000000000054 0.9999999999999999
  endloop
endfacet
facet normal 1.0 -5.247104419918684e-17 -9.593138807858812e-17
  outer loop
    vertex 3.1000000000000005 66.00000000000055 0.9999999999999999
    vertex 3.1000000000000005 63.10000000000056 10.000000000000002
    vertex 3.1000000000000005 63.10000000000056 0.9999999999999999
  endloop
endfacet
facet normal 1.0 -5.247104419918684e-17 -9.593138807858812e-17
  outer loop
    vertex 3.1000000000000005 63.10000000000056 10.000000000000002
    vertex 3.1000000000000005 66.00000000000055 0.9999999999999999
    vertex 3.1000000000000005 63.35000000000056 11.000000000000002
  endloop
endfacet
facet normal 1.0 -5.247104419918684e-17 -9.593138807858812e-17
  outer loop
    vertex 3.1000000000000005 86.00000000000057 0.9999999999999999
    vertex 3.1000000000000005 80.75000000000051 3.9999999999999996
    vertex 3.1000000000000005 80.75000000000051 0.9999999999999999
  endloop
endfacet
facet normal 1.0 -5.247104419918684e-17 -9.593138807858812e-17
  outer loop
    vertex 3.1000000000000005 88.90000000000055 0.9999999999999999
    vertex 3.1000000000000054 88.65000000000067 11.000000000000002
    vertex 3.1000000000000005 86.00000000000057 0.9999999999999999
  endloop
endfacet
facet normal 1.0 -5.247104419918684e-17 -9.593138807858812e-17
  outer loop
    vertex 3.1000000000000054 88.65000000000067 11.000000000000002
    vertex 3.1000000000000005 88.90000000000055 0.9999999999999999
    vertex 3.1000000000000054 88.90000000000055 10.000000000000002
  endloop
endfacet
facet normal 1.0 -5.247104419918684e-17 -9.593138807858812e-17
  outer loop
    vertex 3.1000000000000005 63.35000000000056 11.000000000000002
    vertex 3.1000000000000005 88.90000000000055 12.0
    vertex 3.1000000000000005 63.10000000000056 12.0
  endloop
endfacet
facet normal 1.0 -5.247104419918684e-17 -9.593138807858812e-17
  outer loop
    vertex 3.1000000000000005 88.90000000000055 12.0
    vertex 3.1000000000000005 63.35000000000056 11.000000000000002
    vertex 3.1000000000000005 71.25000000000054 3.9999999999999996
  endloop
endfacet
facet normal 1.0 -5.247104419918684e-17 -9.593138807858812e-17
  outer loop
    vertex 3.1000000000000005 71.25000000000054 3.9999999999999996
    vertex 3.1000000000000005 63.35000000000056 11.000000000000002
    vertex 3.1000000000000005 66.00000000000055 0.9999999999999999
  endloop
endfacet
facet normal 1.0 -5.247104419918684e-17 -9.593138807858812e-17
  outer loop
    vertex 3.1000000000000005 71.25000000000054 3.9999999999999996
    vertex 3.1000000000000005 66.00000000000055 0.9999999999999999
    vertex 3.1000000000000005 71.25000000000054 0.9999999999999999
  endloop
endfacet
facet normal 1.0 -5.247104419918684e-17 -9.593138807858812e-17
  outer loop
    vertex 3.1000000000000005 88.90000000000055 12.0
    vertex 3.1000000000000005 71.25000000000054 3.9999999999999996
    vertex 3.1000000000000005 80.75000000000051 3.9999999999999996
  endloop
endfacet
facet normal 1.0 -5.247104419918684e-17 -9.593138807858812e-17
  outer loop
    vertex 3.1000000000000005 88.90000000000055 12.0
    vertex 3.1000000000000005 80.75000000000051 3.9999999999999996
    vertex 3.1000000000000005 86.00000000000057 0.9999999999999999
  endloop
endfacet
facet normal 1.0 -5.247104419918684e-17 -9.593138807858812e-17
  outer loop
    vertex 3.1000000000000005 88.90000000000055 12.0
    vertex 3.1000000000000005 86.00000000000057 0.9999999999999999
    vertex 3.1000000000000054 88.65000000000067 11.000000000000002
  endloop
endfacet
facet normal 0.0 1.0 0.0
  outer loop
    vertex 5.639932965095795e-15 71.25000000000054 3.9999999999999996
    vertex 2.1000000000000005 71.25000000000054 -4.229949723821846e-15
    vertex 1.0000000000000056 71.25000000000054 -4.229949723821846e-15
  endloop
endfacet
facet normal 0.0 1.0 0.0
  outer loop
    vertex 2.1000000000000005 71.25000000000054 -4.229949723821846e-15
    vertex 5.639932965095795e-15 71.25000000000054 3.9999999999999996
    vertex 3.1000000000000005 71.25000000000054 0.9999999999999999
  endloop
endfacet
facet normal 0.0 1.0 0.0
  outer loop
    vertex 3.1000000000000005 71.25000000000054 0.9999999999999999
    vertex 5.639932965095795e-15 71.25000000000054 3.9999999999999996
    vertex 3.1000000000000005 71.25000000000054 3.9999999999999996
  endloop
endfacet
facet normal -3.120074375358636e-18 0.7071067811865297 -0.7071067811865653
  outer loop
    vertex 3.1000000000000005 66.00000000000055 0.9999999999999999
    vertex 11.0 65.0000000000005 -4.229949723821846e-15
    vertex 2.1000000000000005 65.0000000000005 -4.229949723821846e-15
  endloop
endfacet
facet normal -3.120074375358636e-18 0.7071067811865297 -0.7071067811865653
  outer loop
    vertex 11.0 65.0000000000005 -4.229949723821846e-15
    vertex 3.1000000000000005 66.00000000000055 0.9999999999999999
    vertex 10.0 66.00000000000055 0.9999999999999999
  endloop
endfacet
facet normal 6.750057673090659e-17 1.416420890357432e-16 -1.0
  outer loop
    vertex 0.9999999999999999 91.00000000000055 -2.432171455140365e-18
    vertex 2.1000000000000005 87.00000000000054 -4.229949723821846e-15
    vertex 1.0000000000000056 80.75000000000051 -4.229949723821846e-15
  endloop
endfacet
facet normal 6.750057673090659e-17 1.416420890357432e-16 -1.0
  outer loop
    vertex 2.1000000000000005 87.00000000000054 -4.229949723821846e-15
    vertex 0.9999999999999999 91.00000000000055 -2.432171455140365e-18
    vertex 12.0 91.00000000000053 6.853247740238201e-15
  endloop
endfacet
facet normal 6.750057673090659e-17 1.416420890357432e-16 -1.0
  outer loop
    vertex 2.1000000000000005 87.00000000000054 -4.229949723821846e-15
    vertex 12.0 91.00000000000053 6.853247740238201e-15
    vertex 11.0 87.00000000000054 -4.229949723821846e-15
  endloop
endfacet
facet normal 6.750057673090659e-17 1.416420890357432e-16 -1.0
  outer loop
    vertex 11.0 87.00000000000054 -4.229949723821846e-15
    vertex 12.0 91.00000000000053 6.853247740238201e-15
    vertex 11.0 65.0000000000005 -4.229949723821846e-15
  endloop
endfacet
facet normal 6.750057673090659e-17 1.416420890357432e-16 -1.0
  outer loop
    vertex 56.999999999999986 91.00000000000055 -2.432171455140365e-18
    vertex 18.281152949374523 86.90000000000055 5.198097116470116e-15
    vertex 18.281152949374523 91.00000000000053 5.198097116470116e-15
  endloop
endfacet
facet normal 6.750057673090659e-17 1.416420890357432e-16 -1.0
  outer loop
    vertex 18.281152949374523 86.90000000000055 5.198097116470116e-15
    vertex 56.999999999999986 91.00000000000055 -2.432171455140365e-18
    vertex 19.0 86.00000000000057 1.5497660626071412e-15
  endloop
endfacet
facet normal 6.750057673090659e-17 1.416420890357432e-16 -1.0
  outer loop
    vertex 19.0 86.00000000000057 1.5497660626071412e-15
    vertex 56.999999999999986 91.00000000000055 -2.432171455140365e-18
    vertex 45.99999999999997 86.00000000000057 1.762479051592436e-15
  endloop
endfacet
facet normal 6.750057673090659e-17 1.416420890357432e-16 -1.0
  outer loop
    vertex 45.99999999999997 86.00000000000057 1.762479051592436e-15
    vertex 56.999999999999986 91.00000000000055 -2.432171455140365e-18
    vertex 45.99999999999997 66.00000000000058 1.762479051592436e-15
  endloop
endfacet
facet normal 6.750057673090659e-17 1.416420890357432e-16 -1.0
  outer loop
    vertex 0.9999999999999999 61.00000000000054 0.0
    vertex 2.1000000000000005 65.0000000000005 -4.229949723821846e-15
    vertex 56.999999999999986 61.00000000000054 0.0
  endloop
endfacet
facet normal 6.750057673090659e-17 1.416420890357432e-16 -1.0
  outer loop
    vertex 2.1000000000000005 65.0000000000005 -4.229949723821846e-15
    vertex 0.9999999999999999 61.00000000000054 0.0
    vertex 1.0000000000000056 71.25000000000054 -4.229949723821846e-15
  endloop
endfacet
facet normal 6.750057673090659e-17 1.416420890357432e-16 -1.0
  outer loop
    vertex 2.1000000000000005 65.0000000000005 -4.229949723821846e-15
    vertex 1.0000000000000056 71.25000000000054 -4.229949723821846e-15
    vertex 2.1000000000000005 71.25000000000054 -4.229949723821846e-15
  endloop
endfacet
facet normal 6.750057673090659e-17 1.416420890357432e-16 -1.0
  outer loop
    vertex 56.999999999999986 61.00000000000054 0.0
    vertex 2.1000000000000005 65.0000000000005 -4.229949723821846e-15
    vertex 11.0 65.0000000000005 -4.229949723821846e-15
  endloop
endfacet
facet normal 6.750057673090659e-17 1.416420890357432e-16 -1.0
  outer loop
    vertex 56.999999999999986 61.00000000000054 0.0
    vertex 11.0 65.0000000000005 -4.229949723821846e-15
    vertex 19.0 66.00000000000058 1.5497660626071412e-15
  endloop
endfacet
facet normal 6.750057673090659e-17 1.416420890357432e-16 -1.0
  outer loop
    vertex 19.0 66.00000000000058 1.5497660626071412e-15
    vertex 11.0 65.0000000000005 -4.229949723821846e-15
    vertex 12.0 86.90000000000055 -1.762479051592436e-16
  endloop
endfacet
facet normal 6.750057673090659e-17 1.416420890357432e-16 -1.0
  outer loop
    vertex 12.0 86.90000000000055 -1.762479051592436e-16
    vertex 11.0 65.0000000000005 -4.229949723821846e-15
    vertex 12.0 91.00000000000053 6.853247740238201e-15
  endloop
endfacet
facet normal 6.750057673090659e-17 1.416420890357432e-16 -1.0
  outer loop
    vertex 19.0 66.00000000000058 1.5497660626071412e-15
    vertex 12.0 86.90000000000055 -1.762479051592436e-16
    vertex 18.281152949374523 86.90000000000055 5.198097116470116e-15
  endloop
endfacet
facet normal 6.750057673090659e-17 1.416420890357432e-16 -1.0
  outer loop
    vertex 19.0 66.00000000000058 1.5497660626071412e-15
    vertex 18.281152949374523 86.90000000000055 5.198097116470116e-15
    vertex 19.0 86.00000000000057 1.5497660626071412e-15
  endloop
endfacet
facet normal 6.750057673090659e-17 1.416420890357432e-16 -1.0
  outer loop
    vertex 56.999999999999986 61.00000000000054 0.0
    vertex 19.0 66.00000000000058 1.5497660626071412e-15
    vertex 45.99999999999997 66.00000000000058 1.762479051592436e-15
  endloop
endfacet
facet normal 6.750057673090659e-17 1.416420890357432e-16 -1.0
  outer loop
    vertex 56.999999999999986 61.00000000000054 0.0
    vertex 45.99999999999997 66.00000000000058 1.762479051592436e-15
    vertex 56.999999999999986 91.00000000000055 -2.432171455140365e-18
  endloop
endfacet
facet normal 6.750057673090659e-17 1.416420890357432e-16 -1.0
  outer loop
    vertex 2.1000000000000005 80.75000000000051 -4.229949723821846e-15
    vertex 1.0000000000000056 80.75000000000051 -4.229949723821846e-15
    vertex 2.1000000000000005 87.00000000000054 -4.229949723821846e-15
  endloop
endfacet
facet normal 4.675779406593564e-18 -0.7071067811865467 -0.7071067811865483
  outer loop
    vertex 45.99999999999997 86.00000000000057 1.762479051592436e-15
    vertex 20.0 85.00000000000053 0.9999999999999998
    vertex 19.0 86.00000000000057 1.5497660626071412e-15
  endloop
endfacet
facet normal 4.675779406593564e-18 -0.7071067811865467 -0.7071067811865483
  outer loop
    vertex 20.0 85.00000000000053 0.9999999999999998
    vertex 45.99999999999997 86.00000000000057 1.762479051592436e-15
    vertex 44.99999999999997 85.00000000000053 0.9999999999999999
  endloop
endfacet
facet normal 0.0 0.0 -1.0
  outer loop
    vertex 3.1000000000000005 80.75000000000051 3.9999999999999996
    vertex 5.639932965095795e-15 71.25000000000054 3.9999999999999996
    vertex 5.639932965095795e-15 80.75000000000051 3.9999999999999996
  endloop
endfacet
facet normal 0.0 0.0 -1.0
  outer loop
    vertex 5.639932965095795e-15 71.25000000000054 3.9999999999999996
    vertex 3.1000000000000005 80.75000000000051 3.9999999999999996
    vertex 3.1000000000000005 71.25000000000054 3.9999999999999996
  endloop
endfacet
facet normal -0.7071067811865492 1.628101515658697e-32 -0.7071067811865459
  outer loop
    vertex 10.0 66.00000000000055 0.9999999999999999
    vertex 11.0 87.00000000000054 -4.229949723821846e-15
    vertex 11.0 65.0000000000005 -4.229949723821846e-15
  endloop
endfacet
facet normal -0.7071067811865492 1.628101515658697e-32 -0.7071067811865459
  outer loop
    vertex 11.0 87.00000000000054 -4.229949723821846e-15
    vertex 10.0 66.00000000000055 0.9999999999999999
    vertex 10.0 86.00000000000057 0.9999999999999999
  endloop
endfacet
facet normal -0.7071067811865476 0.0 -0.7071067811865476
  outer loop
    vertex 44.99999999999997 67.00000000000054 0.9999999999999999
    vertex 45.99999999999997 86.00000000000057 1.762479051592436e-15
    vertex 45.99999999999997 66.00000000000058 1.762479051592436e-15
  endloop
endfacet
facet normal -0.7071067811865476 0.0 -0.7071067811865476
  outer loop
    vertex 45.99999999999997 86.00000000000057 1.762479051592436e-15
    vertex 44.99999999999997 67.00000000000054 0.9999999999999999
    vertex 44.99999999999997 85.00000000000053 0.9999999999999999
  endloop
endfacet
facet normal -4.405995642104589e-16 0.9701425001453338 -0.2425356250363257
  outer loop
    vertex 18.281152949374523 91.00000000000053 5.198097116470116e-15
    vertex 57.999999999999986 92.00000000000051 3.9999999999999996
    vertex 56.999999999999986 91.00000000000055 -2.432171455140365e-18
  endloop
endfacet
facet normal -4.405995642104589e-16 0.9701425001453338 -0.2425356250363257
  outer loop
    vertex 57.999999999999986 92.00000000000051 3.9999999999999996
    vertex 18.281152949374523 91.00000000000053 5.198097116470116e-15
    vertex 18.281152949374523 92.00000000000051 3.9999999999999996
  endloop
endfacet
endsolid TTGO_small_USB-C_case
