solid TTGO_small_USB-C_case
facet normal 0.7081071529034265 3.757405931371306e-21 0.7061049921980466
  outer loop
    vertex 54.69999999999999 28.700000000000546 5.008506500000009
    vertex 53.69999999999999 4.300000000000553 6.011342000000011
    vertex 54.69999999999999 3.3000000000005523 5.008506500000009
  endloop
endfacet
facet normal 0.7081071529034265 3.757405931371306e-21 0.7061049921980466
  outer loop
    vertex 53.69999999999999 4.300000000000553 6.011342000000011
    vertex 54.69999999999999 28.700000000000546 5.008506500000009
    vertex 53.69999999999999 27.700000000000546 6.011342000000011
  endloop
endfacet
facet normal 3.52715547424419e-21 0.7081071529034265 0.7061049921980466
  outer loop
    vertex 4.300000000000005 27.700000000000546 6.011342000000011
    vertex 54.69999999999999 28.700000000000546 5.008506500000009
    vertex 3.3000000000000025 28.700000000000546 5.008506500000009
  endloop
endfacet
facet normal 3.52715547424419e-21 0.7081071529034265 0.7061049921980466
  outer loop
    vertex 54.69999999999999 28.700000000000546 5.008506500000009
    vertex 4.300000000000005 27.700000000000546 6.011342000000011
    vertex 53.69999999999999 27.700000000000546 6.011342000000011
  endloop
endfacet
facet normal 0.34324806874726504 0.8286741428280068 0.442131121172827
  outer loop
    vertex 15.65 13.401923788647222 2.0113420000000044
    vertex 16.632361909794962 14.068148347422415 5.639932965095795e-15
    vertex 16.150000000000006 14.267949192431674 5.639932965095795e-15
  endloop
endfacet
facet normal 0.34324806874726504 0.8286741428280068 0.442131121172827
  outer loop
    vertex 16.632361909794962 14.068148347422415 5.639932965095795e-15
    vertex 15.65 13.401923788647222 2.0113420000000044
    vertex 16.373542864692435 13.102222521133326 2.0113420000000044
  endloop
endfacet
facet normal 0.8892768935219767 -0.11707552407894406 0.4421311211728298
  outer loop
    vertex 38.91814834742186 16.517638090205594 5.639932965095795e-15
    vertex 37.84999999999997 16.000000000000576 2.0113420000000044
    vertex 38.85 16.00000000000055 5.639932965095795e-15
  endloop
endfacet
facet normal 0.8892768935219767 -0.11707552407894406 0.4421311211728298
  outer loop
    vertex 37.84999999999997 16.000000000000576 2.0113420000000044
    vertex 38.91814834742186 16.517638090205594 5.639932965095795e-15
    vertex 37.95222252113278 16.776457135308124 2.0113420000000044
  endloop
endfacet
facet normal 0.1170755240789198 0.8892768935219842 0.442131121172821
  outer loop
    vertex 40.07354286469243 13.102222521133339 2.0113420000000044
    vertex 40.85 14.000000000000549 5.639932965095795e-15
    vertex 40.33236190979496 14.068148347422413 5.639932965095795e-15
  endloop
endfacet
facet normal 0.1170755240789198 0.8892768935219842 0.442131121172821
  outer loop
    vertex 40.85 14.000000000000549 5.639932965095795e-15
    vertex 40.07354286469243 13.102222521133339 2.0113420000000044
    vertex 40.85000000000001 13.000000000000554 2.0113420000000044
  endloop
endfacet
facet normal -0.8286741428280098 0.3432480687472714 0.4421311211728164
  outer loop
    vertex 20.047777478867197 15.223542864692977 2.0113420000000044
    vertex 18.88205080756888 15.000000000000554 5.639932965095795e-15
    vertex 19.748076211353297 14.50000000000055 2.0113420000000044
  endloop
endfacet
facet normal -0.8286741428280098 0.3432480687472714 0.4421311211728164
  outer loop
    vertex 18.88205080756888 15.000000000000554 5.639932965095795e-15
    vertex 20.047777478867197 15.223542864692977 2.0113420000000044
    vertex 19.081851652578134 15.482361909795511 5.639932965095795e-15
  endloop
endfacet
facet normal 0.5460288247747089 -0.7115986187490877 0.44213112117282694
  outer loop
    vertex 39.35 18.598076211353884 2.0113420000000044
    vertex 39.4357864376269 17.414213562373646 5.639932965095795e-15
    vertex 39.85 17.73205080756943 5.639932965095795e-15
  endloop
endfacet
facet normal 0.5460288247747089 -0.7115986187490877 0.44213112117282694
  outer loop
    vertex 39.4357864376269 17.414213562373646 5.639932965095795e-15
    vertex 39.35 18.598076211353884 2.0113420000000044
    vertex 38.72867965644031 18.121320343560196 2.0113420000000044
  endloop
endfacet
facet normal 0.82867414282801 0.343248068747266 0.44213112117282055
  outer loop
    vertex 39.11794919243112 15.00000000000055 5.639932965095795e-15
    vertex 37.95222252113278 15.223542864693009 2.0113420000000044
    vertex 38.251923788646685 14.500000000000558 2.0113420000000044
  endloop
endfacet
facet normal 0.82867414282801 0.343248068747266 0.44213112117282055
  outer loop
    vertex 37.95222252113278 15.223542864693009 2.0113420000000044
    vertex 39.11794919243112 15.00000000000055 5.639932965095795e-15
    vertex 38.91814834742186 15.48236190979551 5.639932965095795e-15
  endloop
endfacet
facet normal -0.82867414282801 -0.3432480687472598 0.4421311211728251
  outer loop
    vertex 43.747777478867214 16.776457135308124 2.0113420000000044
    vertex 42.582050807568876 17.000000000000554 5.639932965095795e-15
    vertex 42.78185165257814 16.517638090205594 5.639932965095795e-15
  endloop
endfacet
facet normal -0.82867414282801 -0.3432480687472598 0.4421311211728251
  outer loop
    vertex 42.582050807568876 17.000000000000554 5.639932965095795e-15
    vertex 43.747777478867214 16.776457135308124 2.0113420000000044
    vertex 43.44807621135333 17.500000000000558 2.0113420000000044
  endloop
endfacet
facet normal -0.889276893521982 0.1170755240789336 0.4421311211728221
  outer loop
    vertex 43.850000000000016 16.000000000000576 2.0113420000000044
    vertex 42.78185165257814 15.482361909795511 5.639932965095795e-15
    vertex 43.747777478867214 15.223542864693009 2.0113420000000044
  endloop
endfacet
facet normal -0.889276893521982 0.1170755240789336 0.4421311211728221
  outer loop
    vertex 42.78185165257814 15.482361909795511 5.639932965095795e-15
    vertex 43.850000000000016 16.000000000000576 2.0113420000000044
    vertex 42.85000000000001 16.00000000000055 5.639932965095795e-15
  endloop
endfacet
facet normal 0.11707552407892843 -0.8892768935219821 0.44213112117282327
  outer loop
    vertex 40.85000000000001 19.00000000000056 2.0113420000000044
    vertex 40.33236190979496 17.93185165257869 5.639932965095795e-15
    vertex 40.85 18.000000000000554 5.639932965095795e-15
  endloop
endfacet
facet normal 0.11707552407892843 -0.8892768935219821 0.44213112117282327
  outer loop
    vertex 40.33236190979496 17.93185165257869 5.639932965095795e-15
    vertex 40.85000000000001 19.00000000000056 2.0113420000000044
    vertex 40.07354286469243 18.897777478867766 2.0113420000000044
  endloop
endfacet
facet normal 0.8892768935219779 0.11707552407894188 0.442131121172828
  outer loop
    vertex 38.91814834742186 15.48236190979551 5.639932965095795e-15
    vertex 37.84999999999997 16.000000000000576 2.0113420000000044
    vertex 37.95222252113278 15.223542864693009 2.0113420000000044
  endloop
endfacet
facet normal 0.8892768935219779 0.11707552407894188 0.442131121172828
  outer loop
    vertex 37.84999999999997 16.000000000000576 2.0113420000000044
    vertex 38.91814834742186 15.48236190979551 5.639932965095795e-15
    vertex 38.85 16.00000000000055 5.639932965095795e-15
  endloop
endfacet
facet normal -0.8286741428280133 0.34324806874725505 0.4421311211728226
  outer loop
    vertex 43.747777478867214 15.223542864693009 2.0113420000000044
    vertex 42.582050807568876 15.00000000000055 5.639932965095795e-15
    vertex 43.44807621135333 14.500000000000558 2.0113420000000044
  endloop
endfacet
facet normal -0.8286741428280133 0.34324806874725505 0.4421311211728226
  outer loop
    vertex 42.582050807568876 15.00000000000055 5.639932965095795e-15
    vertex 43.747777478867214 15.223542864693009 2.0113420000000044
    vertex 42.78185165257814 15.482361909795511 5.639932965095795e-15
  endloop
endfacet
facet normal -0.5460288247747236 0.7115986187490806 0.4421311211728202
  outer loop
    vertex 18.649999999999988 13.40192378864723 2.0113420000000044
    vertex 18.564213562373094 14.585786437627458 5.639932965095795e-15
    vertex 18.150000000000006 14.267949192431676 5.639932965095795e-15
  endloop
endfacet
facet normal -0.5460288247747236 0.7115986187490806 0.4421311211728202
  outer loop
    vertex 18.564213562373094 14.585786437627458 5.639932965095795e-15
    vertex 18.649999999999988 13.40192378864723 2.0113420000000044
    vertex 19.271320343559633 13.878679656440903 2.0113420000000044
  endloop
endfacet
facet normal -0.34324806874728764 0.8286741428280022 0.4421311211728181
  outer loop
    vertex 41.626457135307575 13.102222521133339 2.0113420000000044
    vertex 41.85000000000001 14.267949192431674 5.639932965095795e-15
    vertex 41.36763809020504 14.068148347422413 5.639932965095795e-15
  endloop
endfacet
facet normal -0.34324806874728764 0.8286741428280022 0.4421311211728181
  outer loop
    vertex 41.85000000000001 14.267949192431674 5.639932965095795e-15
    vertex 41.626457135307575 13.102222521133339 2.0113420000000044
    vertex 42.34999999999997 13.401923788647249 2.0113420000000044
  endloop
endfacet
facet normal -0.7115986187490814 0.5460288247747197 0.44213112117282394
  outer loop
    vertex 43.44807621135333 14.500000000000558 2.0113420000000044
    vertex 42.264213562373094 14.585786437627457 5.639932965095795e-15
    vertex 42.97132034355966 13.878679656440912 2.0113420000000044
  endloop
endfacet
facet normal -0.7115986187490814 0.5460288247747197 0.44213112117282394
  outer loop
    vertex 42.264213562373094 14.585786437627457 5.639932965095795e-15
    vertex 43.44807621135333 14.500000000000558 2.0113420000000044
    vertex 42.582050807568876 15.00000000000055 5.639932965095795e-15
  endloop
endfacet
facet normal -0.8892768935219808 -0.11707552407893568 0.4421311211728238
  outer loop
    vertex 43.850000000000016 16.000000000000576 2.0113420000000044
    vertex 42.78185165257814 16.517638090205594 5.639932965095795e-15
    vertex 42.85000000000001 16.00000000000055 5.639932965095795e-15
  endloop
endfacet
facet normal -0.8892768935219808 -0.11707552407893568 0.4421311211728238
  outer loop
    vertex 42.78185165257814 16.517638090205594 5.639932965095795e-15
    vertex 43.850000000000016 16.000000000000576 2.0113420000000044
    vertex 43.747777478867214 16.776457135308124 2.0113420000000044
  endloop
endfacet
facet normal -0.5460288247747037 0.7115986187490985 0.44213112117281583
  outer loop
    vertex 42.34999999999997 13.401923788647249 2.0113420000000044
    vertex 42.264213562373094 14.585786437627457 5.639932965095795e-15
    vertex 41.85000000000001 14.267949192431674 5.639932965095795e-15
  endloop
endfacet
facet normal -0.5460288247747037 0.7115986187490985 0.44213112117281583
  outer loop
    vertex 42.264213562373094 14.585786437627457 5.639932965095795e-15
    vertex 42.34999999999997 13.401923788647249 2.0113420000000044
    vertex 42.97132034355966 13.878679656440912 2.0113420000000044
  endloop
endfacet
facet normal -0.11707552407892886 -0.8892768935219818 0.44213112117282366
  outer loop
    vertex 41.626457135307575 18.897777478867766 2.0113420000000044
    vertex 40.85 18.000000000000554 5.639932965095795e-15
    vertex 41.36763809020504 17.93185165257869 5.639932965095795e-15
  endloop
endfacet
facet normal -0.11707552407892886 -0.8892768935219818 0.44213112117282366
  outer loop
    vertex 40.85 18.000000000000554 5.639932965095795e-15
    vertex 41.626457135307575 18.897777478867766 2.0113420000000044
    vertex 40.85000000000001 19.00000000000056 2.0113420000000044
  endloop
endfacet
facet normal 0.8286741428280068 -0.3432480687472704 0.44213112117282327
  outer loop
    vertex 39.11794919243112 17.000000000000554 5.639932965095795e-15
    vertex 37.95222252113278 16.776457135308124 2.0113420000000044
    vertex 38.91814834742186 16.517638090205594 5.639932965095795e-15
  endloop
endfacet
facet normal 0.8286741428280068 -0.3432480687472704 0.44213112117282327
  outer loop
    vertex 37.95222252113278 16.776457135308124 2.0113420000000044
    vertex 39.11794919243112 17.000000000000554 5.639932965095795e-15
    vertex 38.251923788646685 17.500000000000558 2.0113420000000044
  endloop
endfacet
facet normal 0.5460288247746913 0.7115986187491058 0.44213112117281966
  outer loop
    vertex 38.72867965644031 13.878679656440912 2.0113420000000044
    vertex 39.85 14.267949192431674 5.639932965095795e-15
    vertex 39.4357864376269 14.585786437627457 5.639932965095795e-15
  endloop
endfacet
facet normal 0.5460288247746913 0.7115986187491058 0.44213112117281966
  outer loop
    vertex 39.85 14.267949192431674 5.639932965095795e-15
    vertex 38.72867965644031 13.878679656440912 2.0113420000000044
    vertex 39.35000000000002 13.401923788647249 2.0113420000000044
  endloop
endfacet
facet normal -0.8892768935219859 0.11707552407892727 0.4421311211728161
  outer loop
    vertex 20.149999999999984 16.00000000000054 2.0113420000000044
    vertex 19.081851652578134 15.482361909795511 5.639932965095795e-15
    vertex 20.047777478867197 15.223542864692977 2.0113420000000044
  endloop
endfacet
facet normal -0.8892768935219859 0.11707552407892727 0.4421311211728161
  outer loop
    vertex 19.081851652578134 15.482361909795511 5.639932965095795e-15
    vertex 20.149999999999984 16.00000000000054 2.0113420000000044
    vertex 19.150000000000006 16.00000000000055 5.639932965095795e-15
  endloop
endfacet
facet normal 0.7115986187490765 0.5460288247747268 0.44213112117282277
  outer loop
    vertex 15.73578643762691 14.585786437627457 5.639932965095795e-15
    vertex 14.551923788646679 14.500000000000545 2.0113420000000044
    vertex 15.028679656440366 13.878679656440898 2.0113420000000044
  endloop
endfacet
facet normal 0.7115986187490765 0.5460288247747268 0.44213112117282277
  outer loop
    vertex 14.551923788646679 14.500000000000545 2.0113420000000044
    vertex 15.73578643762691 14.585786437627457 5.639932965095795e-15
    vertex 15.417949192431124 15.00000000000055 5.639932965095795e-15
  endloop
endfacet
facet normal 0.3432480687472842 0.8286741428280032 0.4421311211728189
  outer loop
    vertex 39.35000000000002 13.401923788647249 2.0113420000000044
    vertex 40.33236190979496 14.068148347422413 5.639932965095795e-15
    vertex 39.85 14.267949192431674 5.639932965095795e-15
  endloop
endfacet
facet normal 0.3432480687472842 0.8286741428280032 0.4421311211728189
  outer loop
    vertex 40.33236190979496 14.068148347422413 5.639932965095795e-15
    vertex 39.35000000000002 13.401923788647249 2.0113420000000044
    vertex 40.07354286469243 13.102222521133339 2.0113420000000044
  endloop
endfacet
facet normal -0.5460288247747105 -0.7115986187490895 0.44213112117282194
  outer loop
    vertex 42.97132034355966 18.121320343560196 2.0113420000000044
    vertex 41.849999999999994 17.73205080756943 5.639932965095795e-15
    vertex 42.264213562373094 17.414213562373646 5.639932965095795e-15
  endloop
endfacet
facet normal -0.5460288247747105 -0.7115986187490895 0.44213112117282194
  outer loop
    vertex 41.849999999999994 17.73205080756943 5.639932965095795e-15
    vertex 42.97132034355966 18.121320343560196 2.0113420000000044
    vertex 42.34999999999997 18.598076211353884 2.0113420000000044
  endloop
endfacet
facet normal 0.3432480687472577 -0.8286741428280109 0.44213112117282505
  outer loop
    vertex 40.07354286469243 18.897777478867766 2.0113420000000044
    vertex 39.85 17.73205080756943 5.639932965095795e-15
    vertex 40.33236190979496 17.93185165257869 5.639932965095795e-15
  endloop
endfacet
facet normal 0.3432480687472577 -0.8286741428280109 0.44213112117282505
  outer loop
    vertex 39.85 17.73205080756943 5.639932965095795e-15
    vertex 40.07354286469243 18.897777478867766 2.0113420000000044
    vertex 39.35 18.598076211353884 2.0113420000000044
  endloop
endfacet
facet normal -0.8892768935219862 -0.11707552407892788 0.44213112117281483
  outer loop
    vertex 20.047777478867197 16.776457135308096 2.0113420000000044
    vertex 19.150000000000006 16.00000000000055 5.639932965095795e-15
    vertex 20.149999999999984 16.00000000000054 2.0113420000000044
  endloop
endfacet
facet normal -0.8892768935219862 -0.11707552407892788 0.44213112117281483
  outer loop
    vertex 19.150000000000006 16.00000000000055 5.639932965095795e-15
    vertex 20.047777478867197 16.776457135308096 2.0113420000000044
    vertex 19.081851652578134 16.517638090205594 5.639932965095795e-15
  endloop
endfacet
facet normal -0.11707552407892018 0.8892768935219839 0.4421311211728217
  outer loop
    vertex 40.85000000000001 13.000000000000554 2.0113420000000044
    vertex 41.36763809020504 14.068148347422413 5.639932965095795e-15
    vertex 40.85 14.000000000000549 5.639932965095795e-15
  endloop
endfacet
facet normal -0.11707552407892018 0.8892768935219839 0.4421311211728217
  outer loop
    vertex 41.36763809020504 14.068148347422413 5.639932965095795e-15
    vertex 40.85000000000001 13.000000000000554 2.0113420000000044
    vertex 41.626457135307575 13.102222521133339 2.0113420000000044
  endloop
endfacet
facet normal 0.711598618749096 -0.5460288247746989 0.4421311211728258
  outer loop
    vertex 39.4357864376269 17.414213562373646 5.639932965095795e-15
    vertex 38.251923788646685 17.500000000000558 2.0113420000000044
    vertex 39.11794919243112 17.000000000000554 5.639932965095795e-15
  endloop
endfacet
facet normal 0.711598618749096 -0.5460288247746989 0.4421311211728258
  outer loop
    vertex 38.251923788646685 17.500000000000558 2.0113420000000044
    vertex 39.4357864376269 17.414213562373646 5.639932965095795e-15
    vertex 38.72867965644031 18.121320343560196 2.0113420000000044
  endloop
endfacet
facet normal 0.8892768935219805 -0.11707552407894413 0.4421311211728223
  outer loop
    vertex 15.15 16.00000000000055 5.639932965095795e-15
    vertex 14.252222521132797 16.776457135308092 2.0113420000000044
    vertex 14.149999999999986 16.00000000000054 2.0113420000000044
  endloop
endfacet
facet normal 0.8892768935219805 -0.11707552407894413 0.4421311211728223
  outer loop
    vertex 14.252222521132797 16.776457135308092 2.0113420000000044
    vertex 15.15 16.00000000000055 5.639932965095795e-15
    vertex 15.218148347421863 16.51763809020559 5.639932965095795e-15
  endloop
endfacet
facet normal 0.34324806874727004 -0.8286741428280107 0.44213112117281567
  outer loop
    vertex 16.37354286469242 18.897777478867738 2.0113420000000044
    vertex 16.15 17.732050807569426 5.639932965095795e-15
    vertex 16.632361909794955 17.931851652578686 5.639932965095795e-15
  endloop
endfacet
facet normal 0.34324806874727004 -0.8286741428280107 0.44213112117281567
  outer loop
    vertex 16.15 17.732050807569426 5.639932965095795e-15
    vertex 16.37354286469242 18.897777478867738 2.0113420000000044
    vertex 15.649999999999993 18.598076211353845 2.0113420000000044
  endloop
endfacet
facet normal -0.3432480687472681 0.8286741428280072 0.44213112117282377
  outer loop
    vertex 17.926457135307547 13.102222521133326 2.0113420000000044
    vertex 18.150000000000006 14.267949192431676 5.639932965095795e-15
    vertex 17.667638090205042 14.068148347422415 5.639932965095795e-15
  endloop
endfacet
facet normal -0.3432480687472681 0.8286741428280072 0.44213112117282377
  outer loop
    vertex 18.150000000000006 14.267949192431676 5.639932965095795e-15
    vertex 17.926457135307547 13.102222521133326 2.0113420000000044
    vertex 18.649999999999988 13.40192378864723 2.0113420000000044
  endloop
endfacet
facet normal -0.7115986187490787 -0.5460288247747215 0.44213112117282577
  outer loop
    vertex 43.44807621135333 17.500000000000558 2.0113420000000044
    vertex 42.264213562373094 17.414213562373646 5.639932965095795e-15
    vertex 42.582050807568876 17.000000000000554 5.639932965095795e-15
  endloop
endfacet
facet normal -0.7115986187490787 -0.5460288247747215 0.44213112117282577
  outer loop
    vertex 42.264213562373094 17.414213562373646 5.639932965095795e-15
    vertex 43.44807621135333 17.500000000000558 2.0113420000000044
    vertex 42.97132034355966 18.121320343560196 2.0113420000000044
  endloop
endfacet
facet normal 0.88927689352198 0.1170755240789427 0.4421311211728236
  outer loop
    vertex 15.218148347421863 15.48236190979551 5.639932965095795e-15
    vertex 14.149999999999986 16.00000000000054 2.0113420000000044
    vertex 14.252222521132797 15.223542864692977 2.0113420000000044
  endloop
endfacet
facet normal 0.88927689352198 0.1170755240789427 0.4421311211728236
  outer loop
    vertex 14.149999999999986 16.00000000000054 2.0113420000000044
    vertex 15.218148347421863 15.48236190979551 5.639932965095795e-15
    vertex 15.15 16.00000000000055 5.639932965095795e-15
  endloop
endfacet
facet normal -0.71159861874909 -0.5460288247747175 0.44213112117281256
  outer loop
    vertex 19.748076211353297 17.500000000000536 2.0113420000000044
    vertex 18.564213562373094 17.414213562373646 5.639932965095795e-15
    vertex 18.88205080756888 17.000000000000554 5.639932965095795e-15
  endloop
endfacet
facet normal -0.71159861874909 -0.5460288247747175 0.44213112117281256
  outer loop
    vertex 18.564213562373094 17.414213562373646 5.639932965095795e-15
    vertex 19.748076211353297 17.500000000000536 2.0113420000000044
    vertex 19.271320343559633 18.121320343560182 2.0113420000000044
  endloop
endfacet
facet normal 0.5460288247747255 0.7115986187490767 0.442131121172824
  outer loop
    vertex 15.028679656440366 13.878679656440898 2.0113420000000044
    vertex 16.150000000000006 14.267949192431674 5.639932965095795e-15
    vertex 15.73578643762691 14.585786437627457 5.639932965095795e-15
  endloop
endfacet
facet normal 0.5460288247747255 0.7115986187490767 0.442131121172824
  outer loop
    vertex 16.150000000000006 14.267949192431674 5.639932965095795e-15
    vertex 15.028679656440366 13.878679656440898 2.0113420000000044
    vertex 15.65 13.401923788647222 2.0113420000000044
  endloop
endfacet
facet normal 0.8286741428280119 0.3432480687472586 0.4421311211728226
  outer loop
    vertex 15.417949192431124 15.00000000000055 5.639932965095795e-15
    vertex 14.252222521132797 15.223542864692977 2.0113420000000044
    vertex 14.551923788646679 14.500000000000545 2.0113420000000044
  endloop
endfacet
facet normal 0.8286741428280119 0.3432480687472586 0.4421311211728226
  outer loop
    vertex 14.252222521132797 15.223542864692977 2.0113420000000044
    vertex 15.417949192431124 15.00000000000055 5.639932965095795e-15
    vertex 15.218148347421863 15.48236190979551 5.639932965095795e-15
  endloop
endfacet
facet normal -0.34324806874726965 -0.8286741428280068 0.4421311211728236
  outer loop
    vertex 42.34999999999997 18.598076211353884 2.0113420000000044
    vertex 41.36763809020504 17.93185165257869 5.639932965095795e-15
    vertex 41.849999999999994 17.73205080756943 5.639932965095795e-15
  endloop
endfacet
facet normal -0.34324806874726965 -0.8286741428280068 0.4421311211728236
  outer loop
    vertex 41.36763809020504 17.93185165257869 5.639932965095795e-15
    vertex 42.34999999999997 18.598076211353884 2.0113420000000044
    vertex 41.626457135307575 18.897777478867766 2.0113420000000044
  endloop
endfacet
facet normal 0.0 -1.0 0.0
  outer loop
    vertex 52.699999999999996 26.70000000000055 6.011342000000011
    vertex 28.999999999999993 26.70000000000055 2.0113420000000044
    vertex 52.699999999999996 26.70000000000055 2.0113420000000044
  endloop
endfacet
facet normal 0.0 -1.0 0.0
  outer loop
    vertex 28.999999999999993 26.70000000000055 2.0113420000000044
    vertex 52.699999999999996 26.70000000000055 6.011342000000011
    vertex 5.300000000000006 26.70000000000055 2.0113420000000044
  endloop
endfacet
facet normal 0.0 -1.0 0.0
  outer loop
    vertex 5.300000000000006 26.70000000000055 2.0113420000000044
    vertex 52.699999999999996 26.70000000000055 6.011342000000011
    vertex 5.300000000000006 26.70000000000055 6.011342000000011
  endloop
endfacet
facet normal 1.0 0.0 0.0
  outer loop
    vertex 5.300000000000006 5.300000000000553 2.0113420000000044
    vertex 5.300000000000006 26.70000000000055 6.011342000000011
    vertex 5.300000000000006 5.300000000000551 6.011342000000011
  endloop
endfacet
facet normal 1.0 0.0 0.0
  outer loop
    vertex 5.300000000000006 26.70000000000055 6.011342000000011
    vertex 5.300000000000006 5.300000000000553 2.0113420000000044
    vertex 5.300000000000006 26.70000000000055 2.0113420000000044
  endloop
endfacet
facet normal -1.0 0.0 0.0
  outer loop
    vertex 52.699999999999996 26.70000000000055 6.011342000000011
    vertex 52.699999999999996 5.300000000000553 2.0113420000000044
    vertex 52.699999999999996 5.300000000000551 6.011342000000011
  endloop
endfacet
facet normal -1.0 0.0 0.0
  outer loop
    vertex 52.699999999999996 5.300000000000553 2.0113420000000044
    vertex 52.699999999999996 26.70000000000055 6.011342000000011
    vertex 52.699999999999996 26.70000000000055 2.0113420000000044
  endloop
endfacet
facet normal -1.404704430299189e-33 1.0 3.524958103184867e-16
  outer loop
    vertex 5.300000000000006 5.300000000000551 6.011342000000011
    vertex 52.699999999999996 5.300000000000553 2.0113420000000044
    vertex 5.300000000000006 5.300000000000553 2.0113420000000044
  endloop
endfacet
facet normal -1.404704430299189e-33 1.0 3.524958103184867e-16
  outer loop
    vertex 52.699999999999996 5.300000000000553 2.0113420000000044
    vertex 5.300000000000006 5.300000000000551 6.011342000000011
    vertex 52.699999999999996 5.300000000000551 6.011342000000011
  endloop
endfacet
facet normal -0.708107152903425 7.514811862731134e-21 0.7061049921980481
  outer loop
    vertex 4.300000000000005 4.300000000000553 6.011342000000011
    vertex 3.3000000000000025 28.700000000000546 5.008506500000009
    vertex 3.3000000000000025 3.3000000000005523 5.008506500000009
  endloop
endfacet
facet normal -0.708107152903425 7.514811862731134e-21 0.7061049921980481
  outer loop
    vertex 3.3000000000000025 28.700000000000546 5.008506500000009
    vertex 4.300000000000005 4.300000000000553 6.011342000000011
    vertex 4.300000000000005 27.700000000000546 6.011342000000011
  endloop
endfacet
facet normal -6.202000043894882e-19 -0.7081071529034255 0.7061049921980476
  outer loop
    vertex 53.69999999999999 4.300000000000553 6.011342000000011
    vertex 3.3000000000000025 3.3000000000005523 5.008506500000009
    vertex 54.69999999999999 3.3000000000005523 5.008506500000009
  endloop
endfacet
facet normal -6.202000043894882e-19 -0.7081071529034255 0.7061049921980476
  outer loop
    vertex 3.3000000000000025 3.3000000000005523 5.008506500000009
    vertex 53.69999999999999 4.300000000000553 6.011342000000011
    vertex 4.300000000000005 4.300000000000553 6.011342000000011
  endloop
endfacet
facet normal 0.0 0.0 1.0
  outer loop
    vertex 5.300000000000006 5.300000000000553 2.0113420000000044
    vertex 14.551923788646679 14.500000000000545 2.0113420000000044
    vertex 5.300000000000006 26.70000000000055 2.0113420000000044
  endloop
endfacet
facet normal 0.0 0.0 1.0
  outer loop
    vertex 14.551923788646679 14.500000000000545 2.0113420000000044
    vertex 5.300000000000006 5.300000000000553 2.0113420000000044
    vertex 15.028679656440366 13.878679656440898 2.0113420000000044
  endloop
endfacet
facet normal 0.0 0.0 1.0
  outer loop
    vertex 15.028679656440366 13.878679656440898 2.0113420000000044
    vertex 5.300000000000006 5.300000000000553 2.0113420000000044
    vertex 15.65 13.401923788647222 2.0113420000000044
  endloop
endfacet
facet normal 0.0 0.0 1.0
  outer loop
    vertex 15.65 13.401923788647222 2.0113420000000044
    vertex 5.300000000000006 5.300000000000553 2.0113420000000044
    vertex 16.373542864692435 13.102222521133326 2.0113420000000044
  endloop
endfacet
facet normal 0.0 0.0 1.0
  outer loop
    vertex 16.373542864692435 13.102222521133326 2.0113420000000044
    vertex 5.300000000000006 5.300000000000553 2.0113420000000044
    vertex 52.699999999999996 5.300000000000553 2.0113420000000044
  endloop
endfacet
facet normal 0.0 0.0 1.0
  outer loop
    vertex 5.300000000000006 26.70000000000055 2.0113420000000044
    vertex 14.551923788646679 14.500000000000545 2.0113420000000044
    vertex 14.252222521132797 15.223542864692977 2.0113420000000044
  endloop
endfacet
facet normal 0.0 0.0 1.0
  outer loop
    vertex 5.300000000000006 26.70000000000055 2.0113420000000044
    vertex 14.252222521132797 15.223542864692977 2.0113420000000044
    vertex 14.149999999999986 16.00000000000054 2.0113420000000044
  endloop
endfacet
facet normal 0.0 0.0 1.0
  outer loop
    vertex 16.373542864692435 13.102222521133326 2.0113420000000044
    vertex 52.699999999999996 5.300000000000553 2.0113420000000044
    vertex 17.149999999999984 13.000000000000538 2.0113420000000044
  endloop
endfacet
facet normal 0.0 0.0 1.0
  outer loop
    vertex 17.149999999999984 13.000000000000538 2.0113420000000044
    vertex 52.699999999999996 5.300000000000553 2.0113420000000044
    vertex 17.926457135307547 13.102222521133326 2.0113420000000044
  endloop
endfacet
facet normal 0.0 0.0 1.0
  outer loop
    vertex 17.926457135307547 13.102222521133326 2.0113420000000044
    vertex 52.699999999999996 5.300000000000553 2.0113420000000044
    vertex 18.649999999999988 13.40192378864723 2.0113420000000044
  endloop
endfacet
facet normal 0.0 0.0 1.0
  outer loop
    vertex 18.649999999999988 13.40192378864723 2.0113420000000044
    vertex 52.699999999999996 5.300000000000553 2.0113420000000044
    vertex 19.271320343559633 13.878679656440903 2.0113420000000044
  endloop
endfacet
facet normal 0.0 0.0 1.0
  outer loop
    vertex 19.271320343559633 13.878679656440903 2.0113420000000044
    vertex 52.699999999999996 5.300000000000553 2.0113420000000044
    vertex 19.748076211353297 14.50000000000055 2.0113420000000044
  endloop
endfacet
facet normal 0.0 0.0 1.0
  outer loop
    vertex 19.748076211353297 14.50000000000055 2.0113420000000044
    vertex 52.699999999999996 5.300000000000553 2.0113420000000044
    vertex 20.047777478867197 15.223542864692977 2.0113420000000044
  endloop
endfacet
facet normal 0.0 0.0 1.0
  outer loop
    vertex 20.047777478867197 15.223542864692977 2.0113420000000044
    vertex 52.699999999999996 5.300000000000553 2.0113420000000044
    vertex 20.149999999999984 16.00000000000054 2.0113420000000044
  endloop
endfacet
facet normal 0.0 0.0 1.0
  outer loop
    vertex 20.149999999999984 16.00000000000054 2.0113420000000044
    vertex 52.699999999999996 5.300000000000553 2.0113420000000044
    vertex 39.35000000000002 13.401923788647249 2.0113420000000044
  endloop
endfacet
facet normal 0.0 0.0 1.0
  outer loop
    vertex 20.149999999999984 16.00000000000054 2.0113420000000044
    vertex 39.35000000000002 13.401923788647249 2.0113420000000044
    vertex 38.72867965644031 13.878679656440912 2.0113420000000044
  endloop
endfacet
facet normal 0.0 0.0 1.0
  outer loop
    vertex 20.149999999999984 16.00000000000054 2.0113420000000044
    vertex 38.72867965644031 13.878679656440912 2.0113420000000044
    vertex 38.251923788646685 14.500000000000558 2.0113420000000044
  endloop
endfacet
facet normal 0.0 0.0 1.0
  outer loop
    vertex 20.149999999999984 16.00000000000054 2.0113420000000044
    vertex 38.251923788646685 14.500000000000558 2.0113420000000044
    vertex 28.999999999999993 26.70000000000055 2.0113420000000044
  endloop
endfacet
facet normal 0.0 0.0 1.0
  outer loop
    vertex 28.999999999999993 26.70000000000055 2.0113420000000044
    vertex 38.251923788646685 14.500000000000558 2.0113420000000044
    vertex 37.95222252113278 15.223542864693009 2.0113420000000044
  endloop
endfacet
facet normal 0.0 0.0 1.0
  outer loop
    vertex 28.999999999999993 26.70000000000055 2.0113420000000044
    vertex 37.95222252113278 15.223542864693009 2.0113420000000044
    vertex 37.84999999999997 16.000000000000576 2.0113420000000044
  endloop
endfacet
facet normal 0.0 0.0 1.0
  outer loop
    vertex 39.35000000000002 13.401923788647249 2.0113420000000044
    vertex 52.699999999999996 5.300000000000553 2.0113420000000044
    vertex 40.07354286469243 13.102222521133339 2.0113420000000044
  endloop
endfacet
facet normal 0.0 0.0 1.0
  outer loop
    vertex 40.07354286469243 13.102222521133339 2.0113420000000044
    vertex 52.699999999999996 5.300000000000553 2.0113420000000044
    vertex 40.85000000000001 13.000000000000554 2.0113420000000044
  endloop
endfacet
facet normal 0.0 0.0 1.0
  outer loop
    vertex 40.85000000000001 13.000000000000554 2.0113420000000044
    vertex 52.699999999999996 5.300000000000553 2.0113420000000044
    vertex 41.626457135307575 13.102222521133339 2.0113420000000044
  endloop
endfacet
facet normal 0.0 0.0 1.0
  outer loop
    vertex 41.626457135307575 13.102222521133339 2.0113420000000044
    vertex 52.699999999999996 5.300000000000553 2.0113420000000044
    vertex 42.34999999999997 13.401923788647249 2.0113420000000044
  endloop
endfacet
facet normal 0.0 0.0 1.0
  outer loop
    vertex 42.34999999999997 13.401923788647249 2.0113420000000044
    vertex 52.699999999999996 5.300000000000553 2.0113420000000044
    vertex 42.97132034355966 13.878679656440912 2.0113420000000044
  endloop
endfacet
facet normal 0.0 0.0 1.0
  outer loop
    vertex 42.97132034355966 13.878679656440912 2.0113420000000044
    vertex 52.699999999999996 5.300000000000553 2.0113420000000044
    vertex 43.44807621135333 14.500000000000558 2.0113420000000044
  endloop
endfacet
facet normal 0.0 0.0 1.0
  outer loop
    vertex 43.44807621135333 14.500000000000558 2.0113420000000044
    vertex 52.699999999999996 5.300000000000553 2.0113420000000044
    vertex 43.747777478867214 15.223542864693009 2.0113420000000044
  endloop
endfacet
facet normal 0.0 0.0 1.0
  outer loop
    vertex 43.747777478867214 15.223542864693009 2.0113420000000044
    vertex 52.699999999999996 5.300000000000553 2.0113420000000044
    vertex 43.850000000000016 16.000000000000576 2.0113420000000044
  endloop
endfacet
facet normal 0.0 0.0 1.0
  outer loop
    vertex 28.999999999999993 26.70000000000055 2.0113420000000044
    vertex 39.35 18.598076211353884 2.0113420000000044
    vertex 52.699999999999996 26.70000000000055 2.0113420000000044
  endloop
endfacet
facet normal 0.0 0.0 1.0
  outer loop
    vertex 39.35 18.598076211353884 2.0113420000000044
    vertex 28.999999999999993 26.70000000000055 2.0113420000000044
    vertex 38.72867965644031 18.121320343560196 2.0113420000000044
  endloop
endfacet
facet normal 0.0 0.0 1.0
  outer loop
    vertex 38.72867965644031 18.121320343560196 2.0113420000000044
    vertex 28.999999999999993 26.70000000000055 2.0113420000000044
    vertex 38.251923788646685 17.500000000000558 2.0113420000000044
  endloop
endfacet
facet normal 0.0 0.0 1.0
  outer loop
    vertex 38.251923788646685 17.500000000000558 2.0113420000000044
    vertex 28.999999999999993 26.70000000000055 2.0113420000000044
    vertex 37.95222252113278 16.776457135308124 2.0113420000000044
  endloop
endfacet
facet normal 0.0 0.0 1.0
  outer loop
    vertex 37.95222252113278 16.776457135308124 2.0113420000000044
    vertex 28.999999999999993 26.70000000000055 2.0113420000000044
    vertex 37.84999999999997 16.000000000000576 2.0113420000000044
  endloop
endfacet
facet normal 0.0 0.0 1.0
  outer loop
    vertex 52.699999999999996 26.70000000000055 2.0113420000000044
    vertex 39.35 18.598076211353884 2.0113420000000044
    vertex 40.07354286469243 18.897777478867766 2.0113420000000044
  endloop
endfacet
facet normal 0.0 0.0 1.0
  outer loop
    vertex 52.699999999999996 26.70000000000055 2.0113420000000044
    vertex 40.07354286469243 18.897777478867766 2.0113420000000044
    vertex 40.85000000000001 19.00000000000056 2.0113420000000044
  endloop
endfacet
facet normal 0.0 0.0 1.0
  outer loop
    vertex 52.699999999999996 26.70000000000055 2.0113420000000044
    vertex 40.85000000000001 19.00000000000056 2.0113420000000044
    vertex 41.626457135307575 18.897777478867766 2.0113420000000044
  endloop
endfacet
facet normal 0.0 0.0 1.0
  outer loop
    vertex 52.699999999999996 26.70000000000055 2.0113420000000044
    vertex 41.626457135307575 18.897777478867766 2.0113420000000044
    vertex 42.34999999999997 18.598076211353884 2.0113420000000044
  endloop
endfacet
facet normal 0.0 0.0 1.0
  outer loop
    vertex 52.699999999999996 26.70000000000055 2.0113420000000044
    vertex 42.34999999999997 18.598076211353884 2.0113420000000044
    vertex 42.97132034355966 18.121320343560196 2.0113420000000044
  endloop
endfacet
facet normal 0.0 0.0 1.0
  outer loop
    vertex 52.699999999999996 26.70000000000055 2.0113420000000044
    vertex 42.97132034355966 18.121320343560196 2.0113420000000044
    vertex 43.44807621135333 17.500000000000558 2.0113420000000044
  endloop
endfacet
facet normal 0.0 0.0 1.0
  outer loop
    vertex 52.699999999999996 26.70000000000055 2.0113420000000044
    vertex 43.44807621135333 17.500000000000558 2.0113420000000044
    vertex 43.747777478867214 16.776457135308124 2.0113420000000044
  endloop
endfacet
facet normal 0.0 0.0 1.0
  outer loop
    vertex 52.699999999999996 26.70000000000055 2.0113420000000044
    vertex 43.747777478867214 16.776457135308124 2.0113420000000044
    vertex 43.850000000000016 16.000000000000576 2.0113420000000044
  endloop
endfacet
facet normal 0.0 0.0 1.0
  outer loop
    vertex 52.699999999999996 26.70000000000055 2.0113420000000044
    vertex 43.850000000000016 16.000000000000576 2.0113420000000044
    vertex 52.699999999999996 5.300000000000553 2.0113420000000044
  endloop
endfacet
facet normal 0.0 0.0 1.0
  outer loop
    vertex 5.300000000000006 26.70000000000055 2.0113420000000044
    vertex 15.649999999999993 18.598076211353845 2.0113420000000044
    vertex 28.999999999999993 26.70000000000055 2.0113420000000044
  endloop
endfacet
facet normal 0.0 0.0 1.0
  outer loop
    vertex 15.649999999999993 18.598076211353845 2.0113420000000044
    vertex 5.300000000000006 26.70000000000055 2.0113420000000044
    vertex 15.028679656440366 18.121320343560182 2.0113420000000044
  endloop
endfacet
facet normal 0.0 0.0 1.0
  outer loop
    vertex 15.028679656440366 18.121320343560182 2.0113420000000044
    vertex 5.300000000000006 26.70000000000055 2.0113420000000044
    vertex 14.551923788646679 17.50000000000053 2.0113420000000044
  endloop
endfacet
facet normal 0.0 0.0 1.0
  outer loop
    vertex 14.551923788646679 17.50000000000053 2.0113420000000044
    vertex 5.300000000000006 26.70000000000055 2.0113420000000044
    vertex 14.252222521132797 16.776457135308092 2.0113420000000044
  endloop
endfacet
facet normal 0.0 0.0 1.0
  outer loop
    vertex 14.252222521132797 16.776457135308092 2.0113420000000044
    vertex 5.300000000000006 26.70000000000055 2.0113420000000044
    vertex 14.149999999999986 16.00000000000054 2.0113420000000044
  endloop
endfacet
facet normal 0.0 0.0 1.0
  outer loop
    vertex 28.999999999999993 26.70000000000055 2.0113420000000044
    vertex 15.649999999999993 18.598076211353845 2.0113420000000044
    vertex 16.37354286469242 18.897777478867738 2.0113420000000044
  endloop
endfacet
facet normal 0.0 0.0 1.0
  outer loop
    vertex 28.999999999999993 26.70000000000055 2.0113420000000044
    vertex 16.37354286469242 18.897777478867738 2.0113420000000044
    vertex 17.149999999999984 19.00000000000054 2.0113420000000044
  endloop
endfacet
facet normal 0.0 0.0 1.0
  outer loop
    vertex 28.999999999999993 26.70000000000055 2.0113420000000044
    vertex 17.149999999999984 19.00000000000054 2.0113420000000044
    vertex 17.926457135307547 18.897777478867738 2.0113420000000044
  endloop
endfacet
facet normal 0.0 0.0 1.0
  outer loop
    vertex 28.999999999999993 26.70000000000055 2.0113420000000044
    vertex 17.926457135307547 18.897777478867738 2.0113420000000044
    vertex 18.649999999999988 18.598076211353845 2.0113420000000044
  endloop
endfacet
facet normal 0.0 0.0 1.0
  outer loop
    vertex 28.999999999999993 26.70000000000055 2.0113420000000044
    vertex 18.649999999999988 18.598076211353845 2.0113420000000044
    vertex 19.271320343559633 18.121320343560182 2.0113420000000044
  endloop
endfacet
facet normal 0.0 0.0 1.0
  outer loop
    vertex 28.999999999999993 26.70000000000055 2.0113420000000044
    vertex 19.271320343559633 18.121320343560182 2.0113420000000044
    vertex 19.748076211353297 17.500000000000536 2.0113420000000044
  endloop
endfacet
facet normal 0.0 0.0 1.0
  outer loop
    vertex 28.999999999999993 26.70000000000055 2.0113420000000044
    vertex 19.748076211353297 17.500000000000536 2.0113420000000044
    vertex 20.047777478867197 16.776457135308096 2.0113420000000044
  endloop
endfacet
facet normal 0.0 0.0 1.0
  outer loop
    vertex 28.999999999999993 26.70000000000055 2.0113420000000044
    vertex 20.047777478867197 16.776457135308096 2.0113420000000044
    vertex 20.149999999999984 16.00000000000054 2.0113420000000044
  endloop
endfacet
facet normal 0.5460288247747218 -0.7115986187490849 0.44213112117281533
  outer loop
    vertex 15.649999999999993 18.598076211353845 2.0113420000000044
    vertex 15.735786437626905 17.414213562373646 5.639932965095795e-15
    vertex 16.15 17.732050807569426 5.639932965095795e-15
  endloop
endfacet
facet normal 0.5460288247747218 -0.7115986187490849 0.44213112117281533
  outer loop
    vertex 15.735786437626905 17.414213562373646 5.639932965095795e-15
    vertex 15.649999999999993 18.598076211353845 2.0113420000000044
    vertex 15.028679656440366 18.121320343560182 2.0113420000000044
  endloop
endfacet
facet normal 0.7115986187490826 -0.5460288247747237 0.4421311211728166
  outer loop
    vertex 15.735786437626905 17.414213562373646 5.639932965095795e-15
    vertex 14.551923788646679 17.50000000000053 2.0113420000000044
    vertex 15.417949192431124 17.00000000000055 5.639932965095795e-15
  endloop
endfacet
facet normal 0.7115986187490826 -0.5460288247747237 0.4421311211728166
  outer loop
    vertex 14.551923788646679 17.50000000000053 2.0113420000000044
    vertex 15.735786437626905 17.414213562373646 5.639932965095795e-15
    vertex 15.028679656440366 18.121320343560182 2.0113420000000044
  endloop
endfacet
facet normal 0.0 0.0 1.0
  outer loop
    vertex 3.300000000000001 3.300000000000553 2.0056710000000035
    vertex 5.300000000000006 5.300000000000553 2.0113420000000044
    vertex 3.300000000000001 28.700000000000546 2.0056710000000035
  endloop
endfacet
facet normal 0.0 0.0 1.0
  outer loop
    vertex 5.300000000000006 5.300000000000553 2.0113420000000044
    vertex 3.300000000000001 3.300000000000553 2.0056710000000035
    vertex 54.69999999999999 3.3000000000005536 2.0056710000000035
  endloop
endfacet
facet normal 0.0 0.0 1.0
  outer loop
    vertex 5.300000000000006 5.300000000000553 2.0113420000000044
    vertex 54.69999999999999 3.3000000000005536 2.0056710000000035
    vertex 52.699999999999996 5.300000000000553 2.0113420000000044
  endloop
endfacet
facet normal 0.0 0.0 1.0
  outer loop
    vertex 52.699999999999996 5.300000000000553 2.0113420000000044
    vertex 54.69999999999999 3.3000000000005536 2.0056710000000035
    vertex 52.699999999999996 26.70000000000055 2.0113420000000044
  endloop
endfacet
facet normal 0.0 0.0 1.0
  outer loop
    vertex 3.300000000000001 28.700000000000546 2.0056710000000035
    vertex 5.300000000000006 26.70000000000055 2.0113420000000044
    vertex 54.69999999999999 28.700000000000546 2.0056710000000035
  endloop
endfacet
facet normal 0.0 0.0 1.0
  outer loop
    vertex 5.300000000000006 26.70000000000055 2.0113420000000044
    vertex 3.300000000000001 28.700000000000546 2.0056710000000035
    vertex 5.300000000000006 5.300000000000553 2.0113420000000044
  endloop
endfacet
facet normal 0.0 0.0 1.0
  outer loop
    vertex 54.69999999999999 28.700000000000546 2.0056710000000035
    vertex 5.300000000000006 26.70000000000055 2.0113420000000044
    vertex 28.999999999999993 26.70000000000055 2.0113420000000044
  endloop
endfacet
facet normal 0.0 0.0 1.0
  outer loop
    vertex 54.69999999999999 28.700000000000546 2.0056710000000035
    vertex 28.999999999999993 26.70000000000055 2.0113420000000044
    vertex 52.699999999999996 26.70000000000055 2.0113420000000044
  endloop
endfacet
facet normal 0.0 0.0 1.0
  outer loop
    vertex 54.69999999999999 28.700000000000546 2.0056710000000035
    vertex 52.699999999999996 26.70000000000055 2.0113420000000044
    vertex 54.69999999999999 3.3000000000005536 2.0056710000000035
  endloop
endfacet
facet normal 6.8578951423830205e-18 -1.0 -3.5216295762970017e-16
  outer loop
    vertex 54.69999999999999 3.3000000000005523 5.008506500000009
    vertex 3.300000000000001 3.300000000000553 2.0056710000000035
    vertex 54.69999999999999 3.3000000000005536 2.0056710000000035
  endloop
endfacet
facet normal 6.8578951423830205e-18 -1.0 -3.5216295762970017e-16
  outer loop
    vertex 3.300000000000001 3.300000000000553 2.0056710000000035
    vertex 54.69999999999999 3.3000000000005523 5.008506500000009
    vertex 3.3000000000000025 3.3000000000005523 5.008506500000009
  endloop
endfacet
facet normal -1.0 0.0 4.695506101729336e-16
  outer loop
    vertex 3.3000000000000025 28.700000000000546 5.008506500000009
    vertex 3.300000000000001 3.300000000000553 2.0056710000000035
    vertex 3.3000000000000025 3.3000000000005523 5.008506500000009
  endloop
endfacet
facet normal -1.0 0.0 4.695506101729336e-16
  outer loop
    vertex 3.300000000000001 3.300000000000553 2.0056710000000035
    vertex 3.3000000000000025 28.700000000000546 5.008506500000009
    vertex 3.300000000000001 28.700000000000546 2.0056710000000035
  endloop
endfacet
facet normal 0.0 1.0 0.0
  outer loop
    vertex 3.3000000000000025 28.700000000000546 5.008506500000009
    vertex 54.69999999999999 28.700000000000546 2.0056710000000035
    vertex 3.300000000000001 28.700000000000546 2.0056710000000035
  endloop
endfacet
facet normal 0.0 1.0 0.0
  outer loop
    vertex 54.69999999999999 28.700000000000546 2.0056710000000035
    vertex 3.3000000000000025 28.700000000000546 5.008506500000009
    vertex 54.69999999999999 28.700000000000546 5.008506500000009
  endloop
endfacet
facet normal 1.0 0.0 0.0
  outer loop
    vertex 54.69999999999999 3.3000000000005536 2.0056710000000035
    vertex 54.69999999999999 28.700000000000546 5.008506500000009
    vertex 54.69999999999999 3.3000000000005523 5.008506500000009
  endloop
endfacet
facet normal 1.0 0.0 0.0
  outer loop
    vertex 54.69999999999999 28.700000000000546 5.008506500000009
    vertex 54.69999999999999 3.3000000000005536 2.0056710000000035
    vertex 54.69999999999999 28.700000000000546 2.0056710000000035
  endloop
endfacet
facet normal 0.0 0.0 1.0
  outer loop
    vertex 4.300000000000005 4.300000000000553 6.011342000000011
    vertex 5.300000000000006 5.300000000000551 6.011342000000011
    vertex 4.300000000000005 27.700000000000546 6.011342000000011
  endloop
endfacet
facet normal 0.0 0.0 1.0
  outer loop
    vertex 5.300000000000006 5.300000000000551 6.011342000000011
    vertex 4.300000000000005 4.300000000000553 6.011342000000011
    vertex 53.69999999999999 4.300000000000553 6.011342000000011
  endloop
endfacet
facet normal 0.0 0.0 1.0
  outer loop
    vertex 5.300000000000006 5.300000000000551 6.011342000000011
    vertex 53.69999999999999 4.300000000000553 6.011342000000011
    vertex 52.699999999999996 5.300000000000551 6.011342000000011
  endloop
endfacet
facet normal 0.0 0.0 1.0
  outer loop
    vertex 52.699999999999996 5.300000000000551 6.011342000000011
    vertex 53.69999999999999 4.300000000000553 6.011342000000011
    vertex 52.699999999999996 26.70000000000055 6.011342000000011
  endloop
endfacet
facet normal 0.0 0.0 1.0
  outer loop
    vertex 4.300000000000005 27.700000000000546 6.011342000000011
    vertex 5.300000000000006 26.70000000000055 6.011342000000011
    vertex 53.69999999999999 27.700000000000546 6.011342000000011
  endloop
endfacet
facet normal 0.0 0.0 1.0
  outer loop
    vertex 5.300000000000006 26.70000000000055 6.011342000000011
    vertex 4.300000000000005 27.700000000000546 6.011342000000011
    vertex 5.300000000000006 5.300000000000551 6.011342000000011
  endloop
endfacet
facet normal 0.0 0.0 1.0
  outer loop
    vertex 53.69999999999999 27.700000000000546 6.011342000000011
    vertex 5.300000000000006 26.70000000000055 6.011342000000011
    vertex 52.699999999999996 26.70000000000055 6.011342000000011
  endloop
endfacet
facet normal 0.0 0.0 1.0
  outer loop
    vertex 53.69999999999999 27.700000000000546 6.011342000000011
    vertex 52.699999999999996 26.70000000000055 6.011342000000011
    vertex 53.69999999999999 4.300000000000553 6.011342000000011
  endloop
endfacet
facet normal 1.0 0.0 0.0
  outer loop
    vertex 57.999999999999986 32.000000000000504 0.0
    vertex 57.999999999999986 5.139388914443543e-13 2.0056710000000035
    vertex 57.999999999999986 5.139388914443543e-13 0.0
  endloop
endfacet
facet normal 1.0 0.0 0.0
  outer loop
    vertex 57.999999999999986 5.139388914443543e-13 2.0056710000000035
    vertex 57.999999999999986 32.000000000000504 0.0
    vertex 57.999999999999986 32.000000000000504 2.0056710000000035
  endloop
endfacet
facet normal 1.2155027942016803e-17 -1.0 0.0
  outer loop
    vertex 57.999999999999986 5.139388914443543e-13 2.0056710000000035
    vertex 1.4099832412739487e-15 5.132338998237174e-13 0.0
    vertex 57.999999999999986 5.139388914443543e-13 0.0
  endloop
endfacet
facet normal 1.2155027942016803e-17 -1.0 0.0
  outer loop
    vertex 1.4099832412739487e-15 5.132338998237174e-13 0.0
    vertex 57.999999999999986 5.139388914443543e-13 2.0056710000000035
    vertex 1.4099832412739487e-15 5.132338998237174e-13 2.0056710000000035
  endloop
endfacet
facet normal -1.0 0.0 0.0
  outer loop
    vertex 1.4099832412739487e-15 32.000000000000504 2.0056710000000035
    vertex 1.4099832412739487e-15 5.132338998237174e-13 0.0
    vertex 1.4099832412739487e-15 5.132338998237174e-13 2.0056710000000035
  endloop
endfacet
facet normal -1.0 0.0 0.0
  outer loop
    vertex 1.4099832412739487e-15 5.132338998237174e-13 0.0
    vertex 1.4099832412739487e-15 32.000000000000504 2.0056710000000035
    vertex 1.4099832412739487e-15 32.000000000000504 0.0
  endloop
endfacet
facet normal 0.0 1.0 0.0
  outer loop
    vertex 1.4099832412739487e-15 32.000000000000504 2.0056710000000035
    vertex 57.999999999999986 32.000000000000504 0.0
    vertex 1.4099832412739487e-15 32.000000000000504 0.0
  endloop
endfacet
facet normal 0.0 1.0 0.0
  outer loop
    vertex 57.999999999999986 32.000000000000504 0.0
    vertex 1.4099832412739487e-15 32.000000000000504 2.0056710000000035
    vertex 57.999999999999986 32.000000000000504 2.0056710000000035
  endloop
endfacet
facet normal 0.0 0.0 1.0
  outer loop
    vertex 1.4099832412739487e-15 5.132338998237174e-13 2.0056710000000035
    vertex 3.300000000000001 3.300000000000553 2.0056710000000035
    vertex 1.4099832412739487e-15 32.000000000000504 2.0056710000000035
  endloop
endfacet
facet normal 0.0 0.0 1.0
  outer loop
    vertex 3.300000000000001 3.300000000000553 2.0056710000000035
    vertex 1.4099832412739487e-15 5.132338998237174e-13 2.0056710000000035
    vertex 57.999999999999986 5.139388914443543e-13 2.0056710000000035
  endloop
endfacet
facet normal 0.0 0.0 1.0
  outer loop
    vertex 3.300000000000001 3.300000000000553 2.0056710000000035
    vertex 57.999999999999986 5.139388914443543e-13 2.0056710000000035
    vertex 54.69999999999999 3.3000000000005536 2.0056710000000035
  endloop
endfacet
facet normal 0.0 0.0 1.0
  outer loop
    vertex 54.69999999999999 3.3000000000005536 2.0056710000000035
    vertex 57.999999999999986 5.139388914443543e-13 2.0056710000000035
    vertex 54.69999999999999 28.700000000000546 2.0056710000000035
  endloop
endfacet
facet normal 0.0 0.0 1.0
  outer loop
    vertex 1.4099832412739487e-15 32.000000000000504 2.0056710000000035
    vertex 3.300000000000001 28.700000000000546 2.0056710000000035
    vertex 57.999999999999986 32.000000000000504 2.0056710000000035
  endloop
endfacet
facet normal 0.0 0.0 1.0
  outer loop
    vertex 3.300000000000001 28.700000000000546 2.0056710000000035
    vertex 1.4099832412739487e-15 32.000000000000504 2.0056710000000035
    vertex 3.300000000000001 3.300000000000553 2.0056710000000035
  endloop
endfacet
facet normal 0.0 0.0 1.0
  outer loop
    vertex 57.999999999999986 32.000000000000504 2.0056710000000035
    vertex 3.300000000000001 28.700000000000546 2.0056710000000035
    vertex 54.69999999999999 28.700000000000546 2.0056710000000035
  endloop
endfacet
facet normal 0.0 0.0 1.0
  outer loop
    vertex 57.999999999999986 32.000000000000504 2.0056710000000035
    vertex 54.69999999999999 28.700000000000546 2.0056710000000035
    vertex 57.999999999999986 5.139388914443543e-13 2.0056710000000035
  endloop
endfacet
facet normal 0.0 0.0 -1.0
  outer loop
    vertex 1.4099832412739487e-15 32.000000000000504 0.0
    vertex 15.735786437626905 17.414213562373646 5.639932965095795e-15
    vertex 1.4099832412739487e-15 5.132338998237174e-13 0.0
  endloop
endfacet
facet normal 0.0 0.0 -1.0
  outer loop
    vertex 15.735786437626905 17.414213562373646 5.639932965095795e-15
    vertex 1.4099832412739487e-15 32.000000000000504 0.0
    vertex 16.15 17.732050807569426 5.639932965095795e-15
  endloop
endfacet
facet normal 0.0 0.0 -1.0
  outer loop
    vertex 16.15 17.732050807569426 5.639932965095795e-15
    vertex 1.4099832412739487e-15 32.000000000000504 0.0
    vertex 16.632361909794955 17.931851652578686 5.639932965095795e-15
  endloop
endfacet
facet normal 0.0 0.0 -1.0
  outer loop
    vertex 16.632361909794955 17.931851652578686 5.639932965095795e-15
    vertex 1.4099832412739487e-15 32.000000000000504 0.0
    vertex 57.999999999999986 32.000000000000504 0.0
  endloop
endfacet
facet normal 0.0 0.0 -1.0
  outer loop
    vertex 1.4099832412739487e-15 5.132338998237174e-13 0.0
    vertex 15.735786437626905 17.414213562373646 5.639932965095795e-15
    vertex 15.417949192431124 17.00000000000055 5.639932965095795e-15
  endloop
endfacet
facet normal 0.0 0.0 -1.0
  outer loop
    vertex 1.4099832412739487e-15 5.132338998237174e-13 0.0
    vertex 15.417949192431124 17.00000000000055 5.639932965095795e-15
    vertex 15.218148347421863 16.51763809020559 5.639932965095795e-15
  endloop
endfacet
facet normal 0.0 0.0 -1.0
  outer loop
    vertex 1.4099832412739487e-15 5.132338998237174e-13 0.0
    vertex 15.218148347421863 16.51763809020559 5.639932965095795e-15
    vertex 15.15 16.00000000000055 5.639932965095795e-15
  endloop
endfacet
facet normal 0.0 0.0 -1.0
  outer loop
    vertex 16.632361909794955 17.931851652578686 5.639932965095795e-15
    vertex 57.999999999999986 32.000000000000504 0.0
    vertex 17.150000000000002 18.00000000000055 5.639932965095795e-15
  endloop
endfacet
facet normal 0.0 0.0 -1.0
  outer loop
    vertex 17.150000000000002 18.00000000000055 5.639932965095795e-15
    vertex 57.999999999999986 32.000000000000504 0.0
    vertex 17.667638090205042 17.931851652578686 5.639932965095795e-15
  endloop
endfacet
facet normal 0.0 0.0 -1.0
  outer loop
    vertex 17.667638090205042 17.931851652578686 5.639932965095795e-15
    vertex 57.999999999999986 32.000000000000504 0.0
    vertex 18.150000000000006 17.732050807569426 5.639932965095795e-15
  endloop
endfacet
facet normal 0.0 0.0 -1.0
  outer loop
    vertex 18.150000000000006 17.732050807569426 5.639932965095795e-15
    vertex 57.999999999999986 32.000000000000504 0.0
    vertex 18.564213562373094 17.414213562373646 5.639932965095795e-15
  endloop
endfacet
facet normal 0.0 0.0 -1.0
  outer loop
    vertex 18.564213562373094 17.414213562373646 5.639932965095795e-15
    vertex 57.999999999999986 32.000000000000504 0.0
    vertex 18.88205080756888 17.000000000000554 5.639932965095795e-15
  endloop
endfacet
facet normal 0.0 0.0 -1.0
  outer loop
    vertex 18.88205080756888 17.000000000000554 5.639932965095795e-15
    vertex 57.999999999999986 32.000000000000504 0.0
    vertex 19.081851652578134 16.517638090205594 5.639932965095795e-15
  endloop
endfacet
facet normal 0.0 0.0 -1.0
  outer loop
    vertex 19.081851652578134 16.517638090205594 5.639932965095795e-15
    vertex 57.999999999999986 32.000000000000504 0.0
    vertex 19.150000000000006 16.00000000000055 5.639932965095795e-15
  endloop
endfacet
facet normal 0.0 0.0 -1.0
  outer loop
    vertex 19.150000000000006 16.00000000000055 5.639932965095795e-15
    vertex 57.999999999999986 32.000000000000504 0.0
    vertex 39.4357864376269 17.414213562373646 5.639932965095795e-15
  endloop
endfacet
facet normal 0.0 0.0 -1.0
  outer loop
    vertex 19.150000000000006 16.00000000000055 5.639932965095795e-15
    vertex 39.4357864376269 17.414213562373646 5.639932965095795e-15
    vertex 39.11794919243112 17.000000000000554 5.639932965095795e-15
  endloop
endfacet
facet normal 0.0 0.0 -1.0
  outer loop
    vertex 19.150000000000006 16.00000000000055 5.639932965095795e-15
    vertex 39.11794919243112 17.000000000000554 5.639932965095795e-15
    vertex 38.91814834742186 16.517638090205594 5.639932965095795e-15
  endloop
endfacet
facet normal 0.0 0.0 -1.0
  outer loop
    vertex 19.150000000000006 16.00000000000055 5.639932965095795e-15
    vertex 38.91814834742186 16.517638090205594 5.639932965095795e-15
    vertex 38.85 16.00000000000055 5.639932965095795e-15
  endloop
endfacet
facet normal 0.0 0.0 -1.0
  outer loop
    vertex 39.4357864376269 17.414213562373646 5.639932965095795e-15
    vertex 57.999999999999986 32.000000000000504 0.0
    vertex 39.85 17.73205080756943 5.639932965095795e-15
  endloop
endfacet
facet normal 0.0 0.0 -1.0
  outer loop
    vertex 39.85 17.73205080756943 5.639932965095795e-15
    vertex 57.999999999999986 32.000000000000504 0.0
    vertex 40.33236190979496 17.93185165257869 5.639932965095795e-15
  endloop
endfacet
facet normal 0.0 0.0 -1.0
  outer loop
    vertex 40.33236190979496 17.93185165257869 5.639932965095795e-15
    vertex 57.999999999999986 32.000000000000504 0.0
    vertex 40.85 18.000000000000554 5.639932965095795e-15
  endloop
endfacet
facet normal 0.0 0.0 -1.0
  outer loop
    vertex 40.85 18.000000000000554 5.639932965095795e-15
    vertex 57.999999999999986 32.000000000000504 0.0
    vertex 41.36763809020504 17.93185165257869 5.639932965095795e-15
  endloop
endfacet
facet normal 0.0 0.0 -1.0
  outer loop
    vertex 41.36763809020504 17.93185165257869 5.639932965095795e-15
    vertex 57.999999999999986 32.000000000000504 0.0
    vertex 41.849999999999994 17.73205080756943 5.639932965095795e-15
  endloop
endfacet
facet normal 0.0 0.0 -1.0
  outer loop
    vertex 41.849999999999994 17.73205080756943 5.639932965095795e-15
    vertex 57.999999999999986 32.000000000000504 0.0
    vertex 42.264213562373094 17.414213562373646 5.639932965095795e-15
  endloop
endfacet
facet normal 0.0 0.0 -1.0
  outer loop
    vertex 42.264213562373094 17.414213562373646 5.639932965095795e-15
    vertex 57.999999999999986 32.000000000000504 0.0
    vertex 42.582050807568876 17.000000000000554 5.639932965095795e-15
  endloop
endfacet
facet normal 0.0 0.0 -1.0
  outer loop
    vertex 42.582050807568876 17.000000000000554 5.639932965095795e-15
    vertex 57.999999999999986 32.000000000000504 0.0
    vertex 42.78185165257814 16.517638090205594 5.639932965095795e-15
  endloop
endfacet
facet normal 0.0 0.0 -1.0
  outer loop
    vertex 42.78185165257814 16.517638090205594 5.639932965095795e-15
    vertex 57.999999999999986 32.000000000000504 0.0
    vertex 42.85000000000001 16.00000000000055 5.639932965095795e-15
  endloop
endfacet
facet normal 0.0 0.0 -1.0
  outer loop
    vertex 1.4099832412739487e-15 5.132338998237174e-13 0.0
    vertex 16.632361909794962 14.068148347422415 5.639932965095795e-15
    vertex 57.999999999999986 5.139388914443543e-13 0.0
  endloop
endfacet
facet normal 0.0 0.0 -1.0
  outer loop
    vertex 16.632361909794962 14.068148347422415 5.639932965095795e-15
    vertex 1.4099832412739487e-15 5.132338998237174e-13 0.0
    vertex 16.150000000000006 14.267949192431674 5.639932965095795e-15
  endloop
endfacet
facet normal 0.0 0.0 -1.0
  outer loop
    vertex 16.150000000000006 14.267949192431674 5.639932965095795e-15
    vertex 1.4099832412739487e-15 5.132338998237174e-13 0.0
    vertex 15.73578643762691 14.585786437627457 5.639932965095795e-15
  endloop
endfacet
facet normal 0.0 0.0 -1.0
  outer loop
    vertex 15.73578643762691 14.585786437627457 5.639932965095795e-15
    vertex 1.4099832412739487e-15 5.132338998237174e-13 0.0
    vertex 15.417949192431124 15.00000000000055 5.639932965095795e-15
  endloop
endfacet
facet normal 0.0 0.0 -1.0
  outer loop
    vertex 15.417949192431124 15.00000000000055 5.639932965095795e-15
    vertex 1.4099832412739487e-15 5.132338998237174e-13 0.0
    vertex 15.218148347421863 15.48236190979551 5.639932965095795e-15
  endloop
endfacet
facet normal 0.0 0.0 -1.0
  outer loop
    vertex 15.218148347421863 15.48236190979551 5.639932965095795e-15
    vertex 1.4099832412739487e-15 5.132338998237174e-13 0.0
    vertex 15.15 16.00000000000055 5.639932965095795e-15
  endloop
endfacet
facet normal 0.0 0.0 -1.0
  outer loop
    vertex 57.999999999999986 5.139388914443543e-13 0.0
    vertex 16.632361909794962 14.068148347422415 5.639932965095795e-15
    vertex 17.150000000000002 14.000000000000552 5.639932965095795e-15
  endloop
endfacet
facet normal 0.0 0.0 -1.0
  outer loop
    vertex 57.999999999999986 5.139388914443543e-13 0.0
    vertex 17.150000000000002 14.000000000000552 5.639932965095795e-15
    vertex 17.667638090205042 14.068148347422415 5.639932965095795e-15
  endloop
endfacet
facet normal 0.0 0.0 -1.0
  outer loop
    vertex 57.999999999999986 5.139388914443543e-13 0.0
    vertex 17.667638090205042 14.068148347422415 5.639932965095795e-15
    vertex 18.150000000000006 14.267949192431676 5.639932965095795e-15
  endloop
endfacet
facet normal 0.0 0.0 -1.0
  outer loop
    vertex 57.999999999999986 5.139388914443543e-13 0.0
    vertex 18.150000000000006 14.267949192431676 5.639932965095795e-15
    vertex 18.564213562373094 14.585786437627458 5.639932965095795e-15
  endloop
endfacet
facet normal 0.0 0.0 -1.0
  outer loop
    vertex 57.999999999999986 5.139388914443543e-13 0.0
    vertex 18.564213562373094 14.585786437627458 5.639932965095795e-15
    vertex 18.88205080756888 15.000000000000554 5.639932965095795e-15
  endloop
endfacet
facet normal 0.0 0.0 -1.0
  outer loop
    vertex 57.999999999999986 5.139388914443543e-13 0.0
    vertex 18.88205080756888 15.000000000000554 5.639932965095795e-15
    vertex 19.081851652578134 15.482361909795511 5.639932965095795e-15
  endloop
endfacet
facet normal 0.0 0.0 -1.0
  outer loop
    vertex 57.999999999999986 5.139388914443543e-13 0.0
    vertex 19.081851652578134 15.482361909795511 5.639932965095795e-15
    vertex 19.150000000000006 16.00000000000055 5.639932965095795e-15
  endloop
endfacet
facet normal 0.0 0.0 -1.0
  outer loop
    vertex 57.999999999999986 5.139388914443543e-13 0.0
    vertex 19.150000000000006 16.00000000000055 5.639932965095795e-15
    vertex 39.4357864376269 14.585786437627457 5.639932965095795e-15
  endloop
endfacet
facet normal 0.0 0.0 -1.0
  outer loop
    vertex 39.4357864376269 14.585786437627457 5.639932965095795e-15
    vertex 19.150000000000006 16.00000000000055 5.639932965095795e-15
    vertex 39.11794919243112 15.00000000000055 5.639932965095795e-15
  endloop
endfacet
facet normal 0.0 0.0 -1.0
  outer loop
    vertex 39.11794919243112 15.00000000000055 5.639932965095795e-15
    vertex 19.150000000000006 16.00000000000055 5.639932965095795e-15
    vertex 38.91814834742186 15.48236190979551 5.639932965095795e-15
  endloop
endfacet
facet normal 0.0 0.0 -1.0
  outer loop
    vertex 38.91814834742186 15.48236190979551 5.639932965095795e-15
    vertex 19.150000000000006 16.00000000000055 5.639932965095795e-15
    vertex 38.85 16.00000000000055 5.639932965095795e-15
  endloop
endfacet
facet normal 0.0 0.0 -1.0
  outer loop
    vertex 57.999999999999986 5.139388914443543e-13 0.0
    vertex 39.4357864376269 14.585786437627457 5.639932965095795e-15
    vertex 39.85 14.267949192431674 5.639932965095795e-15
  endloop
endfacet
facet normal 0.0 0.0 -1.0
  outer loop
    vertex 57.999999999999986 5.139388914443543e-13 0.0
    vertex 39.85 14.267949192431674 5.639932965095795e-15
    vertex 40.33236190979496 14.068148347422413 5.639932965095795e-15
  endloop
endfacet
facet normal 0.0 0.0 -1.0
  outer loop
    vertex 57.999999999999986 5.139388914443543e-13 0.0
    vertex 40.33236190979496 14.068148347422413 5.639932965095795e-15
    vertex 40.85 14.000000000000549 5.639932965095795e-15
  endloop
endfacet
facet normal 0.0 0.0 -1.0
  outer loop
    vertex 57.999999999999986 5.139388914443543e-13 0.0
    vertex 40.85 14.000000000000549 5.639932965095795e-15
    vertex 41.36763809020504 14.068148347422413 5.639932965095795e-15
  endloop
endfacet
facet normal 0.0 0.0 -1.0
  outer loop
    vertex 57.999999999999986 5.139388914443543e-13 0.0
    vertex 41.36763809020504 14.068148347422413 5.639932965095795e-15
    vertex 41.85000000000001 14.267949192431674 5.639932965095795e-15
  endloop
endfacet
facet normal 0.0 0.0 -1.0
  outer loop
    vertex 57.999999999999986 5.139388914443543e-13 0.0
    vertex 41.85000000000001 14.267949192431674 5.639932965095795e-15
    vertex 42.264213562373094 14.585786437627457 5.639932965095795e-15
  endloop
endfacet
facet normal 0.0 0.0 -1.0
  outer loop
    vertex 57.999999999999986 5.139388914443543e-13 0.0
    vertex 42.264213562373094 14.585786437627457 5.639932965095795e-15
    vertex 42.582050807568876 15.00000000000055 5.639932965095795e-15
  endloop
endfacet
facet normal 0.0 0.0 -1.0
  outer loop
    vertex 57.999999999999986 5.139388914443543e-13 0.0
    vertex 42.582050807568876 15.00000000000055 5.639932965095795e-15
    vertex 42.78185165257814 15.482361909795511 5.639932965095795e-15
  endloop
endfacet
facet normal 0.0 0.0 -1.0
  outer loop
    vertex 57.999999999999986 5.139388914443543e-13 0.0
    vertex 42.78185165257814 15.482361909795511 5.639932965095795e-15
    vertex 42.85000000000001 16.00000000000055 5.639932965095795e-15
  endloop
endfacet
facet normal 0.0 0.0 -1.0
  outer loop
    vertex 57.999999999999986 5.139388914443543e-13 0.0
    vertex 42.85000000000001 16.00000000000055 5.639932965095795e-15
    vertex 57.999999999999986 32.000000000000504 0.0
  endloop
endfacet
facet normal -0.3432480687472664 -0.8286741428280139 0.4421311211728126
  outer loop
    vertex 18.649999999999988 18.598076211353845 2.0113420000000044
    vertex 17.667638090205042 17.931851652578686 5.639932965095795e-15
    vertex 18.150000000000006 17.732050807569426 5.639932965095795e-15
  endloop
endfacet
facet normal -0.3432480687472664 -0.8286741428280139 0.4421311211728126
  outer loop
    vertex 17.667638090205042 17.931851652578686 5.639932965095795e-15
    vertex 18.649999999999988 18.598076211353845 2.0113420000000044
    vertex 17.926457135307547 18.897777478867738 2.0113420000000044
  endloop
endfacet
facet normal -0.7115986187490883 0.5460288247747163 0.442131121172817
  outer loop
    vertex 19.748076211353297 14.50000000000055 2.0113420000000044
    vertex 18.564213562373094 14.585786437627458 5.639932965095795e-15
    vertex 19.271320343559633 13.878679656440903 2.0113420000000044
  endloop
endfacet
facet normal -0.7115986187490883 0.5460288247747163 0.442131121172817
  outer loop
    vertex 18.564213562373094 14.585786437627458 5.639932965095795e-15
    vertex 19.748076211353297 14.50000000000055 2.0113420000000044
    vertex 18.88205080756888 15.000000000000554 5.639932965095795e-15
  endloop
endfacet
facet normal -0.11707552407893433 -0.8892768935219851 0.4421311211728154
  outer loop
    vertex 17.926457135307547 18.897777478867738 2.0113420000000044
    vertex 17.150000000000002 18.00000000000055 5.639932965095795e-15
    vertex 17.667638090205042 17.931851652578686 5.639932965095795e-15
  endloop
endfacet
facet normal -0.11707552407893433 -0.8892768935219851 0.4421311211728154
  outer loop
    vertex 17.150000000000002 18.00000000000055 5.639932965095795e-15
    vertex 17.926457135307547 18.897777478867738 2.0113420000000044
    vertex 17.149999999999984 19.00000000000054 2.0113420000000044
  endloop
endfacet
facet normal 0.8286741428280142 -0.3432480687472578 0.44213112117281866
  outer loop
    vertex 15.417949192431124 17.00000000000055 5.639932965095795e-15
    vertex 14.252222521132797 16.776457135308092 2.0113420000000044
    vertex 15.218148347421863 16.51763809020559 5.639932965095795e-15
  endloop
endfacet
facet normal 0.8286741428280142 -0.3432480687472578 0.44213112117281866
  outer loop
    vertex 14.252222521132797 16.776457135308092 2.0113420000000044
    vertex 15.417949192431124 17.00000000000055 5.639932965095795e-15
    vertex 14.551923788646679 17.50000000000053 2.0113420000000044
  endloop
endfacet
facet normal -0.8286741428280127 -0.34324806874726893 0.4421311211728129
  outer loop
    vertex 20.047777478867197 16.776457135308096 2.0113420000000044
    vertex 18.88205080756888 17.000000000000554 5.639932965095795e-15
    vertex 19.081851652578134 16.517638090205594 5.639932965095795e-15
  endloop
endfacet
facet normal -0.8286741428280127 -0.34324806874726893 0.4421311211728129
  outer loop
    vertex 18.88205080756888 17.000000000000554 5.639932965095795e-15
    vertex 20.047777478867197 16.776457135308096 2.0113420000000044
    vertex 19.748076211353297 17.500000000000536 2.0113420000000044
  endloop
endfacet
facet normal 0.11707552407893422 -0.8892768935219845 0.44213112117281667
  outer loop
    vertex 17.149999999999984 19.00000000000054 2.0113420000000044
    vertex 16.632361909794955 17.931851652578686 5.639932965095795e-15
    vertex 17.150000000000002 18.00000000000055 5.639932965095795e-15
  endloop
endfacet
facet normal 0.11707552407893422 -0.8892768935219845 0.44213112117281667
  outer loop
    vertex 16.632361909794955 17.931851652578686 5.639932965095795e-15
    vertex 17.149999999999984 19.00000000000054 2.0113420000000044
    vertex 16.37354286469242 18.897777478867738 2.0113420000000044
  endloop
endfacet
facet normal 0.7115986187490982 0.5460288247746975 0.4421311211728239
  outer loop
    vertex 39.4357864376269 14.585786437627457 5.639932965095795e-15
    vertex 38.251923788646685 14.500000000000558 2.0113420000000044
    vertex 38.72867965644031 13.878679656440912 2.0113420000000044
  endloop
endfacet
facet normal 0.7115986187490982 0.5460288247746975 0.4421311211728239
  outer loop
    vertex 38.251923788646685 14.500000000000558 2.0113420000000044
    vertex 39.4357864376269 14.585786437627457 5.639932965095795e-15
    vertex 39.11794919243112 15.00000000000055 5.639932965095795e-15
  endloop
endfacet
facet normal 0.11707552407892631 0.88927689352198 0.4421311211728277
  outer loop
    vertex 16.373542864692435 13.102222521133326 2.0113420000000044
    vertex 17.150000000000002 14.000000000000552 5.639932965095795e-15
    vertex 16.632361909794962 14.068148347422415 5.639932965095795e-15
  endloop
endfacet
facet normal 0.11707552407892631 0.88927689352198 0.4421311211728277
  outer loop
    vertex 17.150000000000002 14.000000000000552 5.639932965095795e-15
    vertex 16.373542864692435 13.102222521133326 2.0113420000000044
    vertex 17.149999999999984 13.000000000000538 2.0113420000000044
  endloop
endfacet
facet normal -0.5460288247747175 -0.7115986187490898 0.4421311211728129
  outer loop
    vertex 19.271320343559633 18.121320343560182 2.0113420000000044
    vertex 18.150000000000006 17.732050807569426 5.639932965095795e-15
    vertex 18.564213562373094 17.414213562373646 5.639932965095795e-15
  endloop
endfacet
facet normal -0.5460288247747175 -0.7115986187490898 0.4421311211728129
  outer loop
    vertex 18.150000000000006 17.732050807569426 5.639932965095795e-15
    vertex 19.271320343559633 18.121320343560182 2.0113420000000044
    vertex 18.649999999999988 18.598076211353845 2.0113420000000044
  endloop
endfacet
facet normal -0.11707552407892487 0.8892768935219809 0.4421311211728263
  outer loop
    vertex 17.149999999999984 13.000000000000538 2.0113420000000044
    vertex 17.667638090205042 14.068148347422415 5.639932965095795e-15
    vertex 17.150000000000002 14.000000000000552 5.639932965095795e-15
  endloop
endfacet
facet normal -0.11707552407892487 0.8892768935219809 0.4421311211728263
  outer loop
    vertex 17.667638090205042 14.068148347422415 5.639932965095795e-15
    vertex 17.149999999999984 13.000000000000538 2.0113420000000044
    vertex 17.926457135307547 13.102222521133326 2.0113420000000044
  endloop
endfacet
endsolid TTGO_small_USB-C_case
